<?xml version="1.0" standalone="no"?>
<!DOCTYPE svg PUBLIC "-//W3C//DTD SVG 20010904//EN"
 "http://www.w3.org/TR/2001/REC-SVG-20010904/DTD/svg10.dtd">
<svg version="1.0" xmlns="http://www.w3.org/2000/svg"
 width="900.000000pt" height="600.000000pt" viewBox="0 0 900.000000 600.000000"
 preserveAspectRatio="xMidYMid meet">

<g transform="translate(0.000000,600.000000) scale(0.100000,-0.100000)"
fill="#000000" stroke="none">
<path d="M0 5580 c1 -383 3 -419 17 -404 14 14 17 14 32 -1 15 -15 15 -17 0
-28 -9 -7 -14 -18 -12 -24 3 -7 0 -13 -6 -13 -6 0 -11 -6 -11 -12 0 -19 47 36
64 74 12 27 15 29 15 11 1 -17 5 -21 18 -16 13 5 15 2 11 -15 -5 -17 -2 -22
15 -22 16 0 18 3 10 11 -6 6 -9 18 -6 25 3 8 -1 14 -8 14 -8 0 -5 5 6 13 28
19 55 28 55 18 0 -5 -9 -11 -20 -14 -11 -3 -20 -11 -20 -19 0 -8 3 -9 8 -2 7
10 36 25 57 29 6 1 14 3 18 3 5 1 2 9 -7 17 -17 17 -30 20 -21 5 3 -5 1 -10
-5 -10 -14 0 -3 38 16 57 18 19 44 16 43 -4 0 -11 -3 -13 -6 -5 -2 6 -9 12
-14 12 -4 0 -6 -7 -3 -15 4 -8 17 -15 30 -15 25 0 32 14 14 25 -6 4 -7 11 -4
17 4 7 9 6 14 -2 13 -21 32 -2 20 20 -8 16 -7 18 4 14 21 -8 25 -37 6 -51 -13
-10 -13 -14 -1 -25 10 -9 12 -9 7 0 -4 7 -1 12 8 12 8 0 16 5 18 11 2 7 13 9
26 5 18 -6 21 -12 16 -29 -6 -20 -6 -20 11 -4 9 10 30 24 45 32 16 8 31 23 35
34 3 10 19 29 35 41 17 13 30 28 30 34 0 6 13 26 29 44 35 38 68 42 74 10 3
-22 4 -22 15 5 7 17 17 25 23 21 8 -5 8 -9 -1 -14 -13 -8 2 -22 28 -26 16 -3
15 2 -4 32 -14 21 -14 23 -2 19 9 -4 19 -15 24 -25 8 -16 11 -16 22 -4 7 8 8
14 2 14 -5 0 -10 4 -10 10 0 20 30 -3 31 -24 0 -11 3 -15 6 -8 2 6 9 12 15 12
6 0 8 -7 5 -14 -4 -10 -1 -13 9 -9 14 5 20 23 7 23 -5 0 -9 12 -9 26 -2 25 -2
25 19 7 12 -10 17 -12 12 -4 -6 11 -4 13 10 8 37 -15 61 37 30 63 -12 10 -15
10 -15 -3 0 -10 -6 -13 -20 -10 -15 4 -18 1 -16 -13 3 -14 -2 -19 -19 -20 -13
-1 -26 4 -29 11 -3 8 2 11 14 8 12 -3 20 2 25 16 4 12 12 18 21 14 7 -3 14 0
14 5 0 6 8 11 18 11 41 1 82 14 82 27 0 8 5 14 10 14 6 0 10 7 10 15 0 8 -4
15 -10 15 -5 0 -10 5 -10 12 0 8 7 6 17 -5 17 -16 16 -19 -1 -51 -10 -19 -15
-40 -11 -46 6 -9 10 -8 17 4 5 9 14 16 19 16 6 0 21 13 35 30 14 16 31 27 39
24 10 -4 12 0 8 15 -3 12 -1 21 5 21 11 0 9 -46 -2 -58 -4 -3 -11 0 -15 7 -6
9 -11 10 -15 2 -4 -6 -4 -11 0 -11 3 0 0 -8 -7 -17 -13 -16 -12 -17 4 -4 9 8
20 11 23 8 4 -3 13 1 21 9 15 14 63 14 108 -1 12 -4 15 -3 9 2 -12 8 -29 53
-26 66 3 10 -12 9 -43 -3 -17 -7 -24 -7 -20 0 3 6 14 10 23 10 15 0 15 2 2 10
-11 7 -5 9 21 8 20 -1 36 -6 36 -12 -1 -37 5 -69 10 -56 4 8 12 21 20 28 11
12 17 11 38 -2 14 -9 25 -21 25 -26 0 -6 5 -10 12 -10 6 0 4 7 -5 18 -22 24
-21 29 4 35 13 4 28 -1 37 -10 15 -14 14 -15 -8 -8 -22 7 -23 6 -11 -8 12 -15
15 -15 37 1 13 9 24 21 24 26 0 5 -6 3 -14 -3 -11 -9 -15 -8 -22 6 -12 27 -13
56 -2 73 8 13 9 12 4 -2 -2 -9 1 -19 9 -22 9 -3 12 0 8 10 -6 16 22 20 32 4 3
-5 1 -10 -4 -10 -6 0 -11 -7 -11 -16 0 -8 5 -12 10 -9 6 4 18 1 27 -7 15 -11
16 -11 10 4 -8 23 10 33 30 16 15 -11 16 -11 10 5 -4 12 -1 17 11 17 16 1 16
1 0 13 -11 9 -14 18 -7 28 7 11 9 10 9 -5 0 -15 3 -16 14 -7 11 9 15 8 20 -6
6 -15 8 -15 16 -3 6 10 10 11 10 3 0 -7 7 -10 15 -7 8 4 12 10 9 15 -3 5 2 6
11 3 11 -5 14 -2 9 10 -7 19 -16 20 -32 4 -9 -9 -12 -9 -12 0 0 7 5 12 11 12
5 0 8 4 4 9 -3 5 -1 12 5 16 5 3 10 1 10 -4 0 -6 15 -11 33 -11 18 0 38 -5 45
-12 9 -9 12 -9 12 0 0 7 5 12 11 12 6 0 8 -8 5 -17 -4 -13 -1 -12 13 5 18 21
51 31 51 15 0 -17 -18 -35 -28 -29 -11 7 -28 -12 -19 -20 9 -10 46 16 52 36 3
11 11 20 16 20 6 0 8 -4 4 -9 -3 -6 9 -7 31 -4 34 6 37 4 31 -13 -7 -19 -7
-19 8 0 12 16 17 17 30 6 8 -7 15 -23 15 -36 0 -13 4 -24 9 -24 21 0 21 21 0
50 -30 39 -17 50 15 14 19 -22 25 -25 26 -12 0 9 -8 19 -17 21 -17 4 -17 5 0
6 9 0 17 5 17 11 0 5 -7 6 -17 3 -11 -4 -14 -3 -9 5 15 24 -50 3 -66 -22 -5
-7 -8 -6 -8 3 0 8 -3 12 -6 8 -4 -3 -13 1 -21 9 -9 8 -12 18 -9 22 4 3 10 1
15 -6 8 -13 46 -9 66 8 9 7 20 6 40 -4 16 -8 32 -13 37 -10 4 3 5 -1 2 -9 -7
-20 16 -33 27 -16 8 12 13 6 11 -13 -1 -3 5 -11 13 -18 11 -9 14 -7 12 12 -1
25 -21 51 -31 41 -3 -4 -6 1 -6 10 0 11 5 14 17 10 11 -4 14 -3 9 5 -4 7 -2
12 3 12 6 0 11 -9 11 -19 0 -11 4 -22 9 -25 12 -8 20 -56 9 -56 -5 0 -6 -4 -3
-10 3 -5 11 -10 16 -10 6 0 8 4 5 8 -3 5 16 8 42 7 35 -1 46 -5 44 -16 -1 -8
4 -6 13 6 14 17 14 20 -2 29 -27 14 -27 14 -13 31 7 8 22 15 34 14 21 0 21 0
-1 -11 -26 -13 -31 -31 -6 -21 11 4 14 3 9 -5 -4 -7 -1 -12 8 -12 9 0 16 -5
16 -11 0 -5 -6 -7 -12 -3 -10 5 -10 4 -2 -5 12 -13 47 -4 38 10 -3 5 2 6 10 3
16 -6 23 -25 8 -23 -16 2 -52 -14 -52 -23 0 -10 17 -8 53 7 14 6 16 4 11 -11
-6 -16 -3 -15 15 4 22 22 68 32 56 12 -4 -7 2 -9 19 -4 30 7 54 -12 49 -41 -3
-20 -3 -20 5 0 5 11 7 27 4 35 -3 9 7 4 23 -10 19 -17 29 -21 32 -13 3 7 13
23 23 35 17 20 19 20 20 6 0 -10 5 -18 10 -18 6 0 9 3 8 8 -2 4 2 8 7 9 6 1 9
-10 8 -25 -1 -22 3 -27 22 -28 17 -1 22 2 18 14 -5 12 0 14 28 9 19 -4 41 -2
49 3 12 8 10 10 -10 10 -22 1 -23 2 -7 11 9 5 21 8 26 4 11 -6 9 14 -3 34 -7
11 -5 13 10 7 35 -15 74 -25 74 -19 0 2 -10 13 -22 22 -23 19 -17 46 8 37 8
-3 24 4 35 15 11 11 27 18 36 15 8 -3 21 -6 29 -6 8 0 14 -5 14 -11 0 -5 -5
-7 -11 -3 -7 4 -9 0 -5 -14 5 -14 1 -21 -15 -25 -25 -7 -56 3 -40 12 6 4 6 12
2 20 -7 10 -11 8 -16 -10 -5 -14 -3 -25 4 -27 6 -2 11 -10 11 -18 0 -8 5 -14
10 -14 6 0 10 5 10 10 0 7 7 7 22 -1 18 -10 20 -9 15 5 -4 9 -2 16 3 16 6 0
10 10 10 21 0 18 2 19 15 9 27 -23 17 11 -11 37 -21 20 -24 27 -14 36 10 9 11
9 6 0 -4 -8 4 -11 28 -9 23 2 33 -1 30 -9 -3 -6 2 -18 11 -25 13 -11 15 -9 13
11 -3 20 2 24 24 25 18 1 25 -3 21 -13 -3 -8 2 -13 15 -13 11 0 23 -6 25 -12
4 -8 6 -7 6 3 1 9 8 22 16 29 8 7 12 17 9 22 -4 6 3 5 15 -2 l22 -11 -28 -25
c-27 -23 -27 -24 -6 -24 25 0 48 -34 36 -53 -5 -8 -9 -4 -13 12 -5 21 -12 25
-49 27 -24 1 -48 8 -53 16 -8 10 -9 10 -5 -2 2 -8 0 -23 -5 -32 -6 -12 -5 -18
2 -18 6 0 8 -4 5 -10 -3 -5 -1 -10 4 -10 6 0 11 4 11 10 0 12 40 33 48 25 4
-3 -4 -15 -18 -25 -14 -11 -20 -20 -13 -20 7 0 24 12 39 27 26 26 27 26 22 5
-5 -17 -2 -22 12 -22 20 0 34 26 23 42 -4 8 2 9 18 5 13 -4 27 -7 31 -7 4 0 4
-7 1 -17 -4 -11 -3 -14 6 -9 8 5 10 19 5 39 -6 29 -5 30 10 18 9 -8 15 -20 12
-28 -3 -7 -1 -23 4 -35 7 -19 9 -19 9 -5 1 10 6 15 11 12 14 -9 12 -42 -2 -48
-7 -2 -10 -8 -6 -12 9 -10 138 67 131 79 -3 4 -10 2 -15 -5 -7 -11 -8 -9 -4 4
3 10 6 21 6 24 0 4 9 -2 20 -12 23 -21 62 -27 72 -11 4 5 7 -3 6 -19 0 -17 1
-34 2 -40 7 -28 -2 -45 -22 -46 -22 0 -22 -1 -3 -8 27 -11 47 -2 40 19 -3 9 3
24 15 35 11 10 18 21 15 24 -2 4 0 13 6 21 7 12 9 10 9 -7 0 -13 5 -23 10 -23
6 0 10 5 10 11 0 5 5 7 10 4 6 -3 10 3 10 15 0 12 4 19 10 15 5 -3 6 -13 3
-22 -4 -11 -3 -14 6 -9 7 5 18 0 27 -10 9 -11 13 -13 9 -6 -3 6 -2 12 4 12 6
0 7 7 4 17 -4 11 -3 14 6 9 8 -5 10 -18 7 -32 -4 -14 -2 -24 4 -24 5 0 10 -5
10 -11 0 -6 -5 -7 -12 -2 -20 11 -42 13 -57 4 -11 -7 -11 -13 4 -32 l17 -24
-7 24 c-7 22 -5 23 16 17 53 -15 58 -15 52 1 -4 11 -2 14 5 9 18 -11 15 5 -3
18 -13 10 -12 15 11 39 14 16 29 25 32 22 4 -4 -1 -12 -11 -19 -9 -7 -17 -19
-17 -27 0 -11 2 -11 11 1 8 12 10 10 5 -10 l-5 -25 18 22 c14 17 21 19 30 10
10 -9 12 -5 8 21 -3 18 -1 30 4 26 5 -3 9 -12 9 -21 0 -14 2 -14 20 2 10 9 31
18 45 18 21 0 25 3 20 21 -5 20 -4 20 6 -1 7 -13 18 -23 25 -23 7 0 15 -9 19
-19 7 -22 32 -35 40 -21 4 6 0 10 -8 10 -8 0 -17 8 -21 18 -3 9 -8 22 -11 27
-6 13 32 17 40 5 3 -6 16 -5 31 0 36 14 54 12 48 -4 -3 -7 3 -16 12 -20 24 -9
29 0 13 21 -7 10 -1 7 14 -6 15 -14 27 -29 26 -35 0 -6 -3 -5 -6 2 -2 6 -9 10
-14 6 -16 -10 -10 -24 11 -24 11 0 20 -7 20 -15 0 -13 2 -14 14 -3 9 9 11 17
4 25 -12 15 -6 59 7 57 6 -1 20 -5 33 -9 16 -5 22 -2 22 9 0 9 4 16 10 16 5 0
6 -7 3 -17 -7 -18 7 -13 40 15 9 8 27 20 40 27 12 6 21 16 20 22 -1 6 7 9 19
5 19 -5 19 -6 4 -17 -20 -15 -21 -25 -1 -25 17 0 21 -35 5 -45 -6 -3 -10 1
-10 10 0 9 -6 23 -14 31 -13 12 -18 11 -43 -13 -19 -18 -22 -24 -10 -20 10 4
21 7 23 7 3 0 2 5 -1 10 -3 6 0 10 8 10 20 0 28 -12 17 -25 -8 -9 -5 -14 10
-18 11 -3 23 0 27 6 4 7 9 2 13 -13 8 -33 50 -42 50 -11 0 13 -6 21 -16 21
-14 0 -14 -3 -4 -15 7 -8 8 -15 3 -15 -15 0 -34 48 -23 55 6 4 10 0 10 -7 0
-9 3 -9 10 2 7 11 10 11 10 2 0 -7 5 -10 10 -7 6 4 1 14 -12 25 -13 10 -21 21
-18 24 3 3 18 -5 33 -19 19 -16 24 -25 16 -30 -8 -6 -7 -10 5 -17 9 -5 16 -14
16 -19 0 -6 -4 -8 -9 -4 -5 3 -13 0 -16 -6 -12 -19 3 -22 34 -6 29 15 30 14
40 -12 8 -22 10 -23 10 -5 1 11 12 27 26 34 14 7 25 17 25 22 0 4 6 8 13 8 6
-1 2 -9 -11 -20 -14 -11 -18 -21 -12 -25 6 -4 19 2 28 12 27 31 58 34 82 8 12
-13 20 -27 17 -32 -3 -5 -2 -15 4 -23 7 -12 9 -12 9 3 0 10 4 15 10 12 6 -3
10 1 10 9 0 19 16 21 23 4 2 -7 8 -10 12 -6 4 4 1 14 -8 22 -8 8 -17 13 -19
10 -3 -3 -3 8 1 23 5 25 6 26 9 6 3 -19 8 -22 35 -18 18 3 26 2 19 -1 -9 -4
-10 -10 -3 -18 6 -7 6 -17 1 -26 -9 -13 -10 -13 -10 0 -1 12 -3 11 -11 -3 -8
-13 -7 -22 2 -33 6 -8 9 -18 5 -21 -4 -4 -10 -3 -14 2 -12 17 -52 36 -52 25 0
-5 5 -10 11 -10 7 0 9 -9 6 -21 -5 -17 -3 -18 9 -8 20 16 30 3 13 -17 -13 -16
-12 -16 9 -5 12 6 22 16 22 22 0 6 5 7 10 4 6 -4 16 -2 23 3 7 6 21 6 36 1 19
-8 21 -12 11 -24 -9 -10 -9 -15 -1 -15 6 0 11 5 11 11 0 7 12 10 30 7 24 -4
27 -2 18 9 -6 7 -17 12 -24 11 -7 -2 -14 1 -16 6 -2 5 9 10 25 12 15 1 25 -1
22 -6 -3 -5 11 -12 32 -15 21 -3 46 -10 56 -16 26 -14 21 1 -10 27 -25 21 -14
29 15 11 6 -5 16 -5 22 -2 6 3 7 -1 4 -9 -3 -9 -2 -16 2 -17 5 0 20 -2 34 -4
33 -3 49 7 24 16 -14 5 -11 7 13 6 27 0 31 -3 22 -14 -7 -7 -9 -16 -5 -20 3
-4 12 1 19 10 12 17 62 13 52 -3 -3 -5 -1 -11 5 -15 5 -3 10 0 10 8 0 8 10 19
23 25 12 6 16 11 10 11 -7 1 -13 9 -13 19 0 13 2 14 9 3 6 -9 11 -10 15 -2 4
6 12 9 17 6 5 -4 9 1 9 10 0 9 5 13 10 10 15 -9 12 -35 -4 -35 -21 0 -31 -21
-15 -31 11 -7 10 -9 -3 -9 -10 0 -18 -4 -18 -10 0 -5 5 -10 10 -10 6 0 10 -5
10 -11 0 -6 -7 -9 -15 -5 -8 3 -15 1 -15 -5 0 -6 15 -9 33 -7 27 2 33 -1 35
-19 2 -13 -2 -23 -9 -23 -7 0 -9 -3 -6 -6 4 -4 13 -1 22 6 8 7 15 9 15 5 0 -4
7 -2 15 5 8 6 23 9 34 5 16 -5 20 -3 15 9 -4 11 0 16 11 16 9 0 13 -5 10 -10
-4 -7 3 -9 19 -6 31 6 34 -4 5 -22 -14 -9 -18 -19 -14 -32 5 -15 0 -23 -17
-29 l-23 -10 23 0 c12 -1 25 6 28 14 5 12 10 13 20 4 8 -7 14 -7 14 -1 0 5 -7
15 -16 23 -14 12 -14 14 2 26 25 18 39 16 23 -3 -8 -10 -9 -18 -3 -22 6 -4 16
-16 22 -27 6 -11 12 -14 12 -7 0 9 7 11 20 7 15 -5 18 -3 14 9 -7 19 -16 20
-33 4 -11 -11 -13 -10 -8 5 4 11 3 16 -3 12 -6 -3 -10 -2 -10 4 0 5 5 13 11
16 6 5 4 11 -6 19 -15 11 -16 13 -1 25 9 8 19 11 23 7 3 -3 1 -6 -5 -6 -18 0
-2 -30 17 -31 10 0 11 -2 4 -6 -16 -6 -17 -23 -2 -23 7 0 18 -8 25 -17 8 -11
13 -13 14 -5 0 6 9 12 20 12 25 0 26 -27 3 -60 -16 -24 -16 -24 1 -10 26 21
39 59 25 76 -16 20 -6 17 19 -4 17 -15 19 -21 9 -32 -9 -10 -9 -13 1 -17 6 -3
12 -17 13 -31 0 -27 0 -27 10 -4 5 13 6 28 3 33 -10 16 5 61 18 53 8 -5 9 -2
5 10 -7 19 4 15 36 -12 9 -8 17 -10 17 -5 0 6 -10 18 -22 26 -13 9 -18 16 -12
16 5 1 20 -8 32 -20 12 -11 27 -17 32 -14 6 3 10 3 10 -2 0 -13 -49 -32 -56
-22 -9 14 -24 10 -24 -7 0 -8 4 -13 9 -10 5 3 11 -1 15 -9 3 -8 0 -17 -6 -21
-11 -7 -28 13 -28 34 0 6 -4 12 -10 12 -10 0 -3 -26 14 -50 13 -17 86 -26 86
-10 0 5 5 10 11 10 5 0 7 -4 4 -10 -4 -6 7 -10 24 -10 23 0 31 5 31 18 0 14 2
14 9 3 5 -8 7 -20 4 -28 -6 -15 13 -18 22 -3 3 6 14 9 23 9 15 -1 15 -2 0 -6
-19 -5 -26 -53 -8 -53 5 0 7 6 4 13 -3 8 6 18 21 25 16 8 25 8 25 1 0 -6 4 -8
9 -5 15 10 39 -4 46 -27 6 -19 8 -20 12 -4 2 9 10 17 17 17 22 0 26 -13 8 -27
-16 -13 -15 -14 6 -8 13 4 22 2 22 -4 0 -6 3 -10 8 -10 19 3 42 -2 41 -8 -3
-20 2 -23 17 -9 12 13 20 14 37 4 20 -10 20 -12 4 -17 -16 -6 -16 -8 7 -21 27
-14 34 -34 16 -45 -6 -4 -7 -11 -4 -17 4 -6 10 -5 15 3 5 9 9 10 9 3 0 -7 6
-14 13 -17 8 -3 14 1 14 9 0 8 -4 14 -9 14 -4 0 -8 6 -8 14 0 8 -10 22 -22 30
-20 14 -18 21 5 17 5 -1 1 9 -7 21 -20 28 -20 48 -2 48 9 0 12 -7 9 -20 -5
-19 17 -50 36 -50 12 0 24 -36 17 -49 -8 -12 20 -34 36 -28 8 4 7 6 -4 6 -20
1 -24 16 -8 26 8 5 7 12 -2 23 -12 14 -10 14 10 3 14 -8 21 -18 18 -27 -3 -8
1 -17 10 -21 20 -7 32 6 15 16 -8 6 -9 11 -3 15 12 7 26 -29 17 -44 -3 -5 -2
-10 4 -10 5 0 12 9 16 19 8 27 41 32 61 10 11 -12 13 -19 5 -19 -7 0 -9 -4 -6
-10 4 -6 -1 -7 -12 -3 -16 6 -16 5 -4 -10 18 -23 23 -22 46 12 24 37 30 34 11
-5 -17 -32 -4 -49 25 -33 21 11 29 11 28 2 -4 -25 3 -39 20 -39 11 0 17 4 14
9 -3 4 3 18 14 29 16 19 16 21 1 15 -9 -3 -22 1 -28 9 -7 8 -9 15 -4 15 31 4
40 3 44 -8 4 -8 10 -8 24 3 17 12 18 14 3 14 -9 0 -17 5 -17 10 0 14 13 13 28
-2 17 -17 15 -25 -8 -31 -11 -3 -20 -10 -20 -15 0 -11 53 -23 60 -14 3 4 12
13 21 20 16 12 16 10 0 -21 -10 -21 -19 -30 -23 -23 -5 7 -8 4 -8 -6 0 -10 7
-18 15 -18 8 0 15 4 15 10 0 10 71 33 79 25 2 -3 -1 -5 -8 -5 -7 0 -10 -4 -6
-10 3 -5 13 -6 23 -3 14 5 15 3 5 -7 -10 -10 -15 -11 -27 -1 -12 10 -16 9 -24
-6 -6 -10 -13 -17 -16 -15 -13 5 -26 1 -26 -7 0 -6 13 -5 32 1 28 10 33 9 51
-13 11 -13 27 -24 36 -24 9 0 16 -7 17 -15 3 -38 5 -41 31 -38 19 2 29 10 34
28 6 21 7 19 9 -15 1 -22 4 -34 7 -27 7 17 20 15 26 -5 2 -10 8 -26 12 -36 5
-12 2 -17 -9 -17 -9 0 -16 -4 -16 -8 0 -18 13 -20 36 -6 21 14 22 18 9 31 -9
8 -13 19 -10 24 9 14 25 11 25 -6 0 -8 5 -15 11 -15 6 0 8 7 5 16 -4 9 -1 23
5 30 19 23 -14 17 -39 -6 -12 -12 -22 -16 -22 -11 0 5 -3 18 -7 28 -6 16 -5
16 10 4 15 -12 21 -9 18 11 0 4 7 4 16 1 11 -4 14 -3 9 5 -11 18 2 14 25 -7
13 -12 17 -21 10 -26 -12 -7 -15 -26 -3 -23 12 5 49 -37 44 -50 -5 -16 6 -15
21 1 18 19 20 39 5 48 -7 4 -9 11 -5 16 5 4 12 2 16 -6 6 -9 9 -8 13 7 5 18
58 38 58 22 0 -10 -29 -22 -39 -16 -4 3 -12 -9 -18 -25 -10 -26 -10 -30 3 -25
9 3 18 6 20 6 2 0 4 7 4 15 0 19 7 19 26 0 14 -13 14 -15 0 -15 -9 0 -16 -4
-16 -10 0 -5 7 -10 15 -10 8 0 15 -4 15 -10 0 -13 -27 -13 -35 0 -6 9 -20 7
-60 -10 -11 -5 -27 -11 -35 -13 -8 -3 -4 -6 11 -6 14 -1 30 4 35 9 7 7 20 7
35 2 13 -5 41 -7 61 -6 29 2 36 0 31 -12 -3 -8 -12 -13 -20 -10 -8 3 -11 1 -8
-4 8 -13 35 -13 35 0 0 6 5 10 10 10 7 0 7 -6 1 -17 -15 -31 -8 -68 14 -69 11
-1 25 -3 30 -4 6 -1 18 -1 29 0 11 1 15 -3 12 -9 -7 -11 6 -15 17 -5 14 14 -6
30 -33 26 -19 -3 -30 0 -30 8 0 7 7 10 15 7 21 -9 29 10 9 21 -20 11 -10 32
14 31 14 0 13 -2 -3 -9 -19 -8 -19 -9 1 -9 13 -1 24 -9 27 -20 3 -14 11 -18
25 -15 12 4 22 0 26 -11 5 -13 10 -14 19 -6 30 24 139 19 113 -6 -5 -4 -11 -2
-13 5 -6 17 -23 15 -23 -3 0 -17 -17 -20 -22 -4 -4 12 -38 1 -38 -13 0 -5 6
-8 13 -7 32 4 37 -1 31 -28 -4 -16 -10 -30 -14 -33 -4 -3 -10 -16 -14 -30 l-7
-25 17 27 c10 15 26 29 37 32 23 6 34 -19 17 -40 -10 -12 -11 -17 -1 -27 10
-9 12 -9 9 3 -2 9 6 16 19 18 16 2 23 -3 26 -20 l4 -23 8 23 c4 12 11 22 16
22 5 0 4 -11 -1 -24 -8 -21 -5 -25 15 -30 16 -4 22 -11 19 -21 -7 -18 12 -20
19 -2 8 19 28 -14 21 -36 -5 -15 -2 -16 20 -7 20 7 26 6 26 -4 0 -8 6 -17 12
-19 10 -4 10 -6 1 -6 -15 -1 -18 -31 -4 -31 5 0 12 -17 16 -37 6 -31 8 -34 16
-20 6 9 14 17 20 17 6 0 5 -9 -3 -22 -6 -13 -13 -29 -14 -36 -1 -8 -6 -17 -10
-20 -4 -4 -4 1 -1 11 4 9 3 17 -2 17 -5 0 -12 -21 -16 -47 -6 -36 -9 -43 -15
-29 -6 19 -7 18 -13 -3 -3 -13 -10 -21 -14 -18 -5 3 -15 2 -23 -4 -13 -7 -12
-9 3 -9 20 0 24 -45 5 -54 -7 -3 -1 -5 13 -3 18 3 30 -3 38 -16 9 -14 9 -17 1
-12 -9 5 -10 1 -5 -16 7 -22 7 -23 -10 -9 -16 13 -18 13 -13 0 2 -8 15 -16 27
-18 17 -3 21 -8 15 -25 -10 -35 -10 -39 5 -44 9 -4 11 0 7 15 -6 17 -3 19 14
15 23 -6 26 -18 8 -27 -7 -3 -2 -3 12 0 24 6 24 6 9 -12 -9 -11 -19 -26 -22
-34 -4 -10 -6 -7 -6 8 -1 15 -7 22 -21 22 -12 0 -32 7 -45 16 -28 19 -34 9 -7
-13 16 -13 15 -14 -7 -9 -18 4 -21 2 -12 -7 6 -6 11 -19 11 -30 0 -10 5 -15
11 -12 6 4 8 13 5 21 -4 10 2 14 20 14 l25 0 -18 -30 c-9 -17 -21 -30 -25 -30
-4 0 -8 -7 -8 -15 0 -18 17 -20 23 -2 2 7 8 8 13 3 5 -5 4 -10 -3 -13 -12 -4
32 -58 47 -58 5 0 11 -3 15 -7 10 -9 12 -78 3 -78 -4 0 -5 -7 -2 -15 4 -8 2
-15 -4 -15 -13 0 -23 54 -11 58 12 5 12 42 -1 42 -5 0 -10 -5 -10 -11 0 -5 -5
-7 -11 -3 -7 4 -9 0 -5 -14 5 -14 0 -27 -15 -41 -24 -22 -21 -33 9 -36 9 0 23
-5 30 -9 7 -4 27 -2 43 4 16 7 32 10 35 8 3 -3 -13 -13 -35 -21 -21 -9 -42
-21 -46 -27 -3 -6 -11 -7 -17 -4 -7 5 -8 2 -2 -7 4 -8 9 -20 10 -27 4 -21 14
-28 23 -14 7 12 48 9 60 -4 3 -4 -1 -5 -10 -2 -8 3 -25 -4 -38 -18 -13 -13
-28 -21 -33 -18 -6 4 -6 9 2 14 9 5 9 9 1 14 -6 4 -11 4 -12 -1 0 -4 -7 10
-15 32 -7 22 -12 29 -9 16 2 -15 -2 -30 -13 -38 -12 -9 -13 -12 -2 -8 9 3 19
-4 26 -20 10 -20 9 -27 -4 -37 -12 -10 -14 -10 -8 0 4 8 1 12 -9 12 -11 0 -15
-5 -12 -14 4 -11 -2 -14 -27 -12 -18 2 -38 6 -44 10 -6 3 -12 1 -14 -5 -2 -5
-20 -12 -39 -13 -43 -4 -62 -13 -53 -28 4 -6 10 -5 15 3 5 8 9 9 9 3 0 -6 15
-12 33 -12 55 0 59 -2 54 -16 -4 -9 3 -16 15 -20 19 -4 20 -7 7 -22 -8 -10 -9
-15 -2 -11 17 10 28 -13 12 -24 -9 -6 -10 -9 -2 -9 6 0 15 4 18 10 10 16 25
12 19 -5 -4 -8 -14 -15 -24 -15 -21 0 -34 -15 -25 -30 4 -6 15 -4 29 5 22 15
23 15 20 -10 -1 -14 -8 -33 -16 -42 -11 -15 -11 -16 6 -10 20 8 56 -11 89 -45
12 -12 26 -16 41 -12 13 3 27 1 31 -6 5 -8 11 -8 21 1 12 10 17 8 28 -6 8 -11
18 -15 26 -10 9 5 11 4 6 -3 -4 -6 -21 -9 -39 -6 -30 4 -30 4 -7 -6 13 -6 35
-10 49 -8 13 2 26 -3 28 -9 3 -7 0 -13 -6 -13 -6 0 -11 -5 -11 -11 0 -6 6 -7
12 -2 7 4 20 8 28 8 8 1 25 2 38 3 13 1 21 6 17 11 -3 6 6 6 25 1 29 -8 31 -7
26 13 -3 12 -3 16 0 10 3 -7 13 -13 21 -13 9 0 13 -6 10 -15 -4 -8 -2 -17 2
-20 5 -3 11 2 15 10 7 19 26 20 26 1 0 -8 5 -18 11 -22 8 -4 9 0 4 15 -8 27
11 28 25 0 12 -21 37 -21 32 1 -2 7 3 10 12 7 9 -4 18 -2 21 4 9 14 25 1 18
-16 -3 -8 -13 -15 -23 -15 -11 0 -21 -4 -25 -10 -6 -10 15 -50 28 -50 4 0 5 4
2 10 -3 5 -1 10 4 10 14 0 14 -2 -4 -36 -13 -25 -15 -26 -15 -8 0 30 -38 44
-70 27 l-25 -14 32 4 c18 2 30 0 27 -5 -3 -4 3 -8 12 -8 17 0 17 -1 1 -13 -16
-11 -16 -16 -4 -52 16 -45 13 -51 -42 -80 -28 -14 -32 -20 -27 -43 6 -24 5
-25 -7 -10 -20 25 -30 22 -25 -7 3 -14 1 -25 -6 -25 -7 0 -6 -3 2 -8 14 -9 4
-51 -12 -51 -12 -1 -17 -31 -5 -31 5 0 9 -4 9 -10 0 -5 -7 -7 -15 -4 -8 4 -15
1 -15 -5 0 -6 5 -11 10 -11 6 0 10 -5 10 -11 0 -6 -7 -8 -17 -5 -10 4 -14 4
-10 0 4 -4 3 -12 -1 -18 -5 -7 -1 -18 9 -28 17 -16 18 -16 24 3 4 10 11 19 16
19 14 0 5 -40 -12 -50 -11 -7 -11 -12 -1 -22 9 -9 12 -9 12 0 0 7 5 12 11 12
20 0 3 -24 -22 -30 -15 -4 -25 -14 -27 -30 -2 -13 -7 -19 -10 -13 -15 23 -51
24 -72 3 -23 -23 -18 -49 6 -29 13 11 13 9 3 -17 -18 -40 -19 -41 -29 -24 -8
12 -10 11 -10 -7 0 -12 -6 -24 -12 -27 -7 -3 -3 -3 10 0 29 7 29 -4 0 -15 -17
-6 -27 -4 -36 8 -11 14 -12 13 -6 -8 4 -15 3 -21 -5 -17 -5 4 -18 2 -28 -3
-29 -15 -170 -41 -190 -35 -14 5 -15 4 -4 -4 13 -9 -41 -20 -121 -24 -16 0
-28 -4 -28 -7 0 -3 -30 -6 -68 -6 -37 0 -70 -4 -74 -9 -7 -11 -97 -16 -103 -7
-3 6 -40 6 -125 -2 -14 -2 -36 -9 -50 -17 -19 -11 -65 -14 -187 -15 -90 0
-163 4 -163 8 0 5 -5 5 -10 2 -6 -4 -7 -11 -4 -17 4 -6 -1 -6 -14 1 -22 12
-132 11 -132 -1 0 -4 11 -8 25 -8 14 0 25 -4 25 -9 0 -15 32 -22 45 -11 9 8
15 8 20 0 3 -5 16 -10 28 -10 17 0 19 -2 7 -10 -9 -5 -19 -5 -27 1 -8 7 -18 7
-31 0 -12 -6 -22 -7 -28 -1 -6 6 -22 6 -40 1 -17 -5 -37 -5 -45 -1 -8 4 -27 7
-43 6 -35 -1 -49 -26 -14 -26 28 -1 49 -16 73 -55 14 -24 11 -22 -15 8 -26 30
-38 38 -58 34 -18 -3 -26 0 -29 13 -3 10 -12 21 -20 24 -8 3 -11 1 -8 -4 3 -6
-3 -24 -15 -40 -21 -30 -22 -41 -4 -97 3 -11 -1 -8 -11 7 -9 14 -14 17 -11 8
3 -10 1 -20 -4 -23 -6 -4 -10 0 -10 7 0 10 -2 10 -9 -1 -5 -8 -14 -10 -21 -6
-9 5 -11 4 -6 -4 4 -6 0 -14 -11 -17 -55 -18 -83 -39 -77 -59 3 -11 -9 2 -27
29 -28 41 -33 57 -32 105 1 82 48 209 85 230 36 21 37 42 0 38 -15 -2 -33 -6
-39 -10 -6 -4 -13 -1 -16 5 -8 23 -19 0 -21 -43 -1 -23 -9 -47 -17 -53 -15
-12 -49 -92 -68 -163 -7 -24 -14 -43 -17 -43 -4 0 -19 11 -36 25 -38 32 -53
32 -79 -4 l-22 -30 -17 22 c-9 12 -26 43 -38 69 -11 25 -30 52 -42 58 -20 11
-25 9 -46 -16 -13 -16 -27 -40 -30 -52 l-7 -24 -22 28 c-19 24 -21 33 -12 72
7 33 6 46 -3 52 -9 6 -9 13 -1 28 6 11 11 31 10 44 0 13 -3 17 -6 10 -4 -11
-8 -11 -22 1 -9 8 -24 17 -33 20 -16 6 -17 0 -13 -48 6 -68 -16 -189 -44 -244
-28 -53 -27 -65 11 -111 l31 -40 -23 -77 c-13 -43 -25 -108 -28 -146 -6 -88
-18 -95 -15 -9 3 100 -50 314 -90 358 -16 19 -36 34 -44 34 -10 0 -13 6 -9 16
10 26 -12 90 -43 123 -35 38 -45 38 -77 6 -30 -30 -38 -32 -24 -5 7 14 8 26 0
39 -5 11 -10 33 -10 50 0 32 -30 61 -62 61 -14 0 -18 8 -19 38 0 34 -16 91
-19 67 0 -5 -9 1 -19 14 -10 13 -23 21 -29 17 -14 -8 -4 -65 14 -87 15 -17 17
-52 8 -123 -7 -44 -23 -64 -25 -28 0 9 -9 31 -20 47 -10 17 -23 40 -28 52 -15
32 -43 203 -37 219 7 18 -4 45 -15 38 -5 -3 -9 0 -9 5 0 24 -38 10 -44 -15 -7
-26 -7 -26 -27 -8 l-21 19 18 -37 c17 -37 17 -39 -10 -136 -29 -102 -38 -120
-71 -138 -11 -6 -23 -24 -26 -40 -5 -27 -6 -26 -13 15 -8 45 -43 91 -69 91
-23 0 -54 -43 -71 -100 -19 -62 -28 -76 -71 -108 l-29 -23 -16 58 c-14 53 -19
60 -61 83 -39 21 -45 28 -38 45 14 37 9 65 -19 96 -23 25 -34 31 -54 26 -26
-7 -48 -43 -48 -82 0 -30 -17 -41 -25 -16 -3 11 -12 22 -21 25 -8 3 -24 27
-35 52 l-20 47 28 29 c15 15 35 28 45 28 10 0 18 5 18 10 0 6 -5 10 -12 10 -9
0 -9 3 0 12 19 19 14 28 -13 28 -16 0 -42 -16 -70 -41 -44 -41 -45 -41 -45
-16 0 14 -4 29 -10 32 -19 12 -10 45 20 66 34 26 50 55 24 45 -14 -5 -15 -4
-5 8 8 9 9 21 4 30 -8 14 -11 14 -31 0 -12 -8 -22 -23 -22 -32 0 -10 -19 -42
-41 -72 -68 -89 -119 -232 -101 -281 7 -18 4 -31 -13 -54 -13 -16 -35 -54 -49
-82 -15 -29 -28 -53 -31 -53 -3 0 -2 20 1 44 5 36 2 50 -15 74 -26 36 -26 46
-1 97 26 55 27 147 0 189 -24 40 -88 99 -99 92 -4 -3 -17 10 -27 29 -26 49
-47 41 -28 -10 7 -18 6 -18 -9 -6 -26 21 -20 -3 8 -37 30 -36 31 -42 7 -42
-30 0 -52 -33 -52 -78 0 -22 5 -44 10 -47 18 -11 11 -45 -9 -45 -10 0 -30 -18
-46 -40 -15 -22 -30 -38 -33 -35 -3 3 0 11 6 17 31 31 -4 138 -46 138 -24 0
-24 1 -8 25 20 31 20 41 0 24 -17 -14 -18 -13 -51 38 -10 16 -12 15 -12 -12 0
-52 -13 -105 -25 -106 -82 -10 -91 -7 -106 25 -8 17 -26 36 -40 43 -14 7 -35
22 -48 35 -19 21 -21 31 -15 77 3 30 16 67 29 87 23 34 20 46 -5 22 -10 -11
-18 -7 -40 20 -30 35 -48 43 -32 15 22 -42 23 -109 3 -151 -19 -39 -38 -129
-34 -162 3 -31 -24 -50 -79 -55 -109 -11 -113 -11 -117 7 -2 10 3 24 10 32 23
23 10 82 -24 111 -35 30 -48 31 -78 7 -17 -14 -23 -31 -26 -70 -3 -32 0 -52 6
-52 20 0 29 -44 12 -62 -16 -20 -57 -24 -67 -8 -9 15 -41 12 -56 -6 -8 -9 -20
-13 -33 -9 -12 3 -43 8 -70 11 -28 4 -58 14 -69 25 -25 23 -35 24 -58 3 -13
-12 -28 -15 -52 -10 -28 5 -38 15 -60 59 -33 64 -33 85 -5 133 15 26 18 35 7
32 -9 -3 -18 6 -25 26 -13 36 -28 40 -32 8 -2 -12 -8 -20 -13 -17 -5 4 -9 2
-9 -4 0 -5 4 -13 10 -16 15 -9 12 -56 -5 -89 -21 -40 -25 -163 -7 -200 11 -22
11 -34 3 -53 -15 -33 -14 -53 4 -73 10 -11 13 -27 9 -48 -7 -34 -24 -44 -24
-14 0 10 -6 26 -14 37 -7 11 -16 32 -19 47 -5 19 -15 28 -36 33 -22 5 -33 15
-41 39 -6 18 -22 44 -36 57 -24 22 -26 28 -20 87 4 36 3 62 -3 62 -5 0 -11 -6
-14 -12 -2 -8 -10 -1 -17 15 -8 15 -18 26 -24 24 -14 -5 -11 -76 3 -90 6 -6
11 -30 11 -54 0 -41 -2 -43 -29 -43 -16 0 -35 -7 -42 -16 -8 -9 -31 -28 -52
-41 -32 -20 -46 -23 -79 -18 -33 6 -44 3 -64 -16 -14 -13 -24 -34 -24 -50 0
-16 -6 -32 -14 -36 -21 -12 -44 -101 -51 -205 -8 -101 -19 -135 -38 -120 -7 5
-23 8 -37 7 -14 -1 -36 1 -50 6 -22 6 -23 7 -4 8 22 1 39 25 29 41 -3 5 -1 11
5 15 7 4 7 12 0 26 -9 17 -18 18 -65 13 -74 -9 -92 -9 -150 0 -27 4 -133 9
-235 11 -208 4 -359 18 -439 41 -59 17 -55 31 8 30 29 -1 37 3 33 13 -4 11 -1
11 16 2 17 -9 19 -8 15 8 -3 13 1 21 14 24 10 2 1 4 -20 4 -20 0 -40 3 -44 7
-11 11 16 30 44 32 33 1 39 16 17 39 -14 13 -19 14 -25 3 -7 -10 -9 -8 -9 5 0
17 -6 18 -54 14 -45 -4 -58 -1 -72 14 -9 10 -12 19 -6 19 6 0 13 -6 15 -12 3
-8 6 -6 6 5 1 9 -5 17 -12 17 -7 0 -18 9 -25 21 -11 16 -21 20 -48 17 -26 -3
-33 -1 -29 9 2 8 1 12 -4 8 -5 -3 -22 0 -38 7 -15 6 -31 11 -35 10 -5 -1 -8 2
-8 6 0 5 -6 9 -12 10 -45 3 -70 10 -81 22 -10 10 -9 12 5 7 9 -3 19 0 22 8 4
11 -28 14 -162 19 -92 3 -213 8 -269 11 l-103 6 0 -1270 0 -1271 4500 0 4500
0 0 3000 0 3000 -4500 0 -4500 0 0 -420z m3080 365 c10 -12 10 -15 -4 -15 -9
0 -16 7 -16 15 0 8 2 15 4 15 2 0 9 -7 16 -15z m-51 -42 c9 -8 10 -13 3 -13
-13 0 -52 39 -52 53 0 4 8 0 17 -10 9 -10 23 -24 32 -30z m9 12 c-3 -3 -9 2
-12 12 -6 14 -5 15 5 6 7 -7 10 -15 7 -18z m165 9 c-3 -9 -9 -12 -12 -7 -3 4
-10 11 -15 16 -5 4 0 7 12 7 15 0 20 -4 15 -16z m-1103 -8 c0 -3 -4 -8 -10
-11 -5 -3 -10 -1 -10 4 0 6 5 11 10 11 6 0 10 -2 10 -4z m57 -2 c-3 -4 -2 -14
3 -24 6 -12 5 -17 -4 -17 -7 0 -11 10 -10 21 3 27 3 26 11 26 3 0 3 -3 0 -6z
m963 -4 c0 -5 -5 -10 -11 -10 -5 0 -7 5 -4 10 3 6 8 10 11 10 2 0 4 -4 4 -10z
m60 0 c0 -5 -4 -10 -10 -10 -5 0 -10 5 -10 10 0 6 5 10 10 10 6 0 10 -4 10
-10z m204 -6 c3 -8 2 -12 -4 -9 -6 3 -10 10 -10 16 0 14 7 11 14 -7z m506 12
c0 -2 -7 -7 -16 -10 -8 -3 -12 -2 -9 4 6 10 25 14 25 6z m824 -11 c-4 -8 -10
-12 -15 -9 -11 6 -2 24 11 24 5 0 7 -7 4 -15z m-1954 -5 c0 -5 -2 -10 -4 -10
-3 0 -8 5 -11 10 -3 6 -1 10 4 10 6 0 11 -4 11 -10z m983 -10 c4 -15 0 -20
-13 -20 -11 0 -22 5 -25 10 -4 6 -1 9 7 8 7 -2 12 3 11 10 -5 20 14 13 20 -8z
m481 4 c3 -8 2 -12 -4 -9 -6 3 -10 10 -10 16 0 14 7 11 14 -7z m366 12 c0 -3
-4 -8 -10 -11 -5 -3 -10 -1 -10 4 0 6 5 11 10 11 6 0 10 -2 10 -4z m-1890 -16
c0 -5 -2 -10 -4 -10 -3 0 -8 5 -11 10 -3 6 -1 10 4 10 6 0 11 -4 11 -10z
m-573 -15 c0 -8 -4 -12 -9 -9 -5 3 -6 10 -3 15 9 13 12 11 12 -6z m613 11 c0
-3 -4 -8 -10 -11 -5 -3 -10 -1 -10 4 0 6 5 11 10 11 6 0 10 -2 10 -4z m631 -7
c20 -10 20 -11 2 -25 -17 -13 -17 -15 0 -28 10 -8 14 -16 10 -19 -12 -8 -28 4
-42 30 -10 19 -9 22 4 17 18 -7 20 7 3 24 -15 15 -3 16 23 1z m489 -1 c0 -6
-3 -9 -6 -5 -4 3 -13 -1 -21 -9 -20 -19 -29 -10 -12 10 17 18 39 21 39 4z m35
-8 c-4 -11 -2 -20 4 -20 6 0 11 -5 11 -12 0 -8 -5 -7 -15 3 -9 9 -13 23 -9 32
9 24 17 21 9 -3z m455 16 c0 -3 -4 -8 -10 -11 -5 -3 -10 -1 -10 4 0 6 5 11 10
11 6 0 10 -2 10 -4z m-2735 -24 c-3 -3 -11 0 -18 7 -9 10 -8 11 6 5 10 -3 15
-9 12 -12z m218 11 c-7 -2 -21 -2 -30 0 -10 3 -4 5 12 5 17 0 24 -2 18 -5z
m65 0 c-10 -2 -18 -9 -18 -14 0 -6 -5 -7 -11 -3 -14 8 8 24 31 23 11 -1 10 -3
-2 -6z m197 -3 c3 -6 -1 -7 -9 -4 -18 7 -21 14 -7 14 6 0 13 -4 16 -10z m1165
0 c0 -5 -10 -10 -22 -9 -22 0 -22 1 -3 9 11 5 21 9 23 9 1 1 2 -3 2 -9z m239
-38 c5 -18 6 -32 1 -32 -4 0 -11 11 -14 24 -3 13 -9 32 -12 43 -5 13 -4 15 5
7 6 -6 15 -25 20 -42z m291 15 c0 -23 -2 -22 -19 10 -10 19 -9 22 4 17 8 -4
15 -15 15 -27z m900 29 c0 -9 -30 -14 -35 -6 -4 6 3 10 14 10 12 0 21 -2 21
-4z m-3163 -12 c-3 -3 -12 -4 -19 -1 -8 3 -5 6 6 6 11 1 17 -2 13 -5z m123
-14 c0 -11 -4 -20 -9 -20 -5 0 -16 -3 -24 -6 -8 -3 -17 1 -20 9 -4 10 1 13 21
9 20 -4 24 -2 19 12 -4 9 -2 16 3 16 6 0 10 -9 10 -20z m30 5 c0 -8 -4 -15
-10 -15 -5 0 -7 7 -4 15 4 8 8 15 10 15 2 0 4 -7 4 -15z m42 -7 c-4 -17 -2
-20 11 -15 10 4 17 2 17 -3 0 -6 -9 -10 -19 -10 -11 0 -22 -6 -25 -12 -3 -7
-3 1 1 17 3 17 8 33 10 38 8 14 11 7 5 -15z m235 16 c-3 -3 -12 -4 -19 -1 -8
3 -5 6 6 6 11 1 17 -2 13 -5z m1188 -14 c0 -7 -7 -15 -15 -17 -13 -4 -13 -3 0
6 13 10 13 12 0 22 -13 9 -13 10 0 6 8 -2 15 -10 15 -17z m1155 4 c0 -8 -4
-12 -10 -9 -5 3 -10 10 -10 16 0 5 5 9 10 9 6 0 10 -7 10 -16z m-2230 -10 c0
-8 -5 -12 -10 -9 -6 4 -8 11 -5 16 9 14 15 11 15 -7z m1367 -6 c-3 -8 -6 -5
-6 6 -1 11 2 17 5 13 3 -3 4 -12 1 -19z m200 15 c-4 -3 -3 -11 2 -17 6 -7 4
-16 -4 -23 -11 -10 -13 -8 -11 15 4 32 4 32 13 32 3 0 3 -3 0 -7z m223 -13
c-19 -12 -30 -12 -30 -1 0 10 31 20 40 14 2 -2 -2 -8 -10 -13z m310 10 c0 -5
-2 -10 -4 -10 -3 0 -8 5 -11 10 -3 6 -1 10 4 10 6 0 11 -4 11 -10z m-2055 -38
c-4 -4 -10 -1 -12 6 -3 6 -9 10 -14 6 -5 -3 -9 -1 -9 4 0 18 13 21 27 6 9 -8
12 -18 8 -22z m1355 28 c0 -5 -4 -10 -10 -10 -5 0 -10 5 -10 10 0 6 5 10 10
10 6 0 10 -4 10 -10z m231 -13 c-10 -9 -11 -8 -5 6 3 10 9 15 12 12 3 -3 0
-11 -7 -18z m803 17 c9 -3 16 -11 16 -17 0 -7 -4 -7 -12 1 -15 15 -32 16 -23
2 3 -5 1 -10 -4 -10 -6 0 -11 7 -11 15 0 16 9 19 34 9z m-2704 -14 c0 -5 -5
-10 -11 -10 -5 0 -7 5 -4 10 3 6 8 10 11 10 2 0 4 -4 4 -10z m1460 -18 c3 -3
-5 -1 -17 2 -24 8 -33 -8 -10 -17 6 -3 8 -6 2 -6 -5 0 -16 3 -24 8 -12 8 -12
11 0 24 13 14 19 13 49 -11z m304 13 c3 -8 1 -15 -4 -15 -6 0 -10 7 -10 15 0
8 2 15 4 15 2 0 6 -7 10 -15z m196 6 c0 -5 -7 -12 -16 -15 -14 -5 -15 -4 -4 9
14 17 20 19 20 6z m833 -6 c-3 -9 -8 -14 -10 -11 -3 3 -2 9 2 15 9 16 15 13 8
-4z m-2905 -7 c-2 -5 -8 -9 -13 -9 -5 0 -11 4 -13 9 -1 5 4 9 13 9 9 0 14 -4
13 -9z m-166 -20 c-7 -7 -12 -8 -12 -2 0 14 12 26 19 19 2 -3 -1 -11 -7 -17z
m1103 12 c-3 -5 -12 -10 -18 -10 -7 0 -6 4 3 10 19 12 23 12 15 0z m1821 -7
c-1 -7 -6 -16 -11 -20 -4 -4 -5 -2 0 6 6 10 2 12 -16 7 -13 -3 -18 -3 -11 0 6
3 10 9 8 13 -3 4 4 7 14 7 9 0 17 -6 16 -13z m-2346 -3 c0 -5 9 -10 20 -10 11
0 20 -4 20 -9 0 -11 -39 -9 -58 3 -7 4 -10 12 -7 17 8 12 25 12 25 -1z m1195
-12 c-6 -16 -54 -42 -62 -34 -10 9 54 60 65 51 1 -1 0 -9 -3 -17z m2005 18 c0
-3 -4 -8 -10 -11 -5 -3 -10 -1 -10 4 0 6 5 11 10 11 6 0 10 -2 10 -4z m-3025
-16 c3 -5 1 -10 -4 -10 -6 0 -11 5 -11 10 0 6 2 10 4 10 3 0 8 -4 11 -10z
m2345 -5 c11 -13 10 -14 -4 -9 -9 3 -16 10 -16 15 0 13 6 11 20 -6z m420 -10
c-7 -9 -15 -13 -17 -11 -6 6 20 36 26 30 2 -2 -2 -10 -9 -19z m-2426 -6 c-8
-14 -21 -11 -21 5 0 8 6 12 14 9 7 -3 10 -9 7 -14z m-1134 0 c0 -14 -53 -20
-64 -8 -8 9 -7 10 7 6 9 -4 17 -2 17 3 0 5 9 8 20 7 11 -1 20 -4 20 -8z m850
7 c0 -3 -4 -8 -10 -11 -5 -3 -10 -1 -10 4 0 6 5 11 10 11 6 0 10 -2 10 -4z
m102 -3 c-6 -3 -10 -8 -7 -13 3 -4 -4 -6 -15 -3 -33 9 -32 20 3 20 18 1 26 -1
19 -4z m48 -1 c0 -13 -12 -22 -22 -16 -10 6 -1 24 13 24 5 0 9 -4 9 -8z m175
-14 c-19 -11 -30 -5 -21 11 4 6 14 7 22 4 15 -5 14 -7 -1 -15z m799 13 c3 -5
-2 -15 -12 -22 -15 -13 -16 -12 -4 3 10 13 10 17 0 21 -9 4 -9 6 -1 6 6 1 14
-3 17 -8z m-1089 -11 c3 -6 -1 -7 -9 -4 -18 7 -21 14 -7 14 6 0 13 -4 16 -10z
m2415 -11 c0 -4 -5 -11 -10 -14 -6 -4 -8 -11 -5 -16 4 -5 1 -9 -5 -9 -7 0 -9
8 -5 20 5 15 3 18 -9 14 -10 -4 -16 -1 -16 9 0 10 8 13 25 9 14 -2 25 -8 25
-13z m35 11 c3 -5 1 -10 -4 -10 -6 0 -11 5 -11 10 0 6 2 10 4 10 3 0 8 -4 11
-10z m520 -10 c3 -6 -1 -7 -9 -4 -18 7 -21 14 -7 14 6 0 13 -4 16 -10z m-3855
-10 c0 -5 -7 -10 -15 -10 -8 0 -15 5 -15 10 0 6 7 10 15 10 8 0 15 -4 15 -10z
m988 -9 c3 -8 -1 -12 -9 -9 -7 2 -15 10 -17 17 -3 8 1 12 9 9 7 -2 15 -10 17
-17z m122 10 c0 -5 -7 -11 -14 -14 -10 -4 -13 -1 -9 9 6 15 23 19 23 5z m2703
2 c-25 -9 -13 -25 13 -19 25 7 25 6 9 -10 -15 -15 -18 -15 -32 -1 -16 16 -10
38 10 36 9 0 9 -2 0 -6z m-4033 -13 c0 -5 8 -7 18 -4 10 4 13 2 7 -3 -5 -4
-11 -17 -13 -28 -2 -17 -1 -18 8 -5 9 12 13 12 17 2 4 -10 8 -10 19 -1 8 7 18
9 21 5 12 -11 -18 -25 -46 -21 -14 2 -30 4 -35 4 -4 1 -5 8 -2 17 4 9 1 23 -5
30 -8 10 -8 14 0 14 6 0 11 -4 11 -10z m3600 0 c8 -5 11 -10 5 -10 -5 0 -17 5
-25 10 -8 5 -10 10 -5 10 6 0 17 -5 25 -10z m560 -2 c0 -6 -3 -8 -7 -5 -3 4
-12 2 -20 -4 -8 -8 -13 -8 -13 -1 0 10 15 19 33 21 4 1 7 -4 7 -11z m-4185 -9
c11 -16 1 -19 -13 -3 -7 8 -8 14 -3 14 5 0 13 -5 16 -11z m3497 4 c-6 -3 -9
-9 -6 -15 4 -6 1 -9 -6 -6 -23 7 -21 24 2 25 13 0 17 -1 10 -4z m78 3 c0 -2
-7 -7 -16 -10 -8 -3 -12 -2 -9 4 6 10 25 14 25 6z m557 -2 c-3 -3 -12 -4 -19
-1 -8 3 -5 6 6 6 11 1 17 -2 13 -5z m-477 -24 c0 -5 -5 -10 -11 -10 -5 0 -7 5
-4 10 3 6 8 10 11 10 2 0 4 -4 4 -10z m530 6 c0 -3 -4 -8 -10 -11 -5 -3 -10
-1 -10 4 0 6 5 11 10 11 6 0 10 -2 10 -4z m115 -6 c3 -5 -1 -10 -10 -10 -9 0
-13 5 -10 10 3 6 8 10 10 10 2 0 7 -4 10 -10z m-4465 -25 c14 -19 14 -19 -2
-6 -10 7 -18 18 -18 24 0 6 1 8 3 6 1 -2 9 -13 17 -24z m4230 4 c0 -14 -16
-11 -29 5 -10 12 -8 13 8 9 12 -3 21 -9 21 -14z m-4350 1 c0 -5 -5 -10 -11
-10 -5 0 -7 5 -4 10 3 6 8 10 11 10 2 0 4 -4 4 -10z m287 -12 c-3 -8 -6 -5 -6
6 -1 11 2 17 5 13 3 -3 4 -12 1 -19z m4158 12 c3 -5 1 -10 -4 -10 -6 0 -11 5
-11 10 0 6 2 10 4 10 3 0 8 -4 11 -10z m-130 -10 c3 -5 2 -10 -4 -10 -5 0 -13
5 -16 10 -3 6 -2 10 4 10 5 0 13 -4 16 -10z m65 -5 c0 -12 -63 -74 -71 -69
-11 6 -12 25 -1 22 15 -3 42 15 36 24 -4 6 -9 6 -14 -2 -5 -8 -18 -10 -39 -5
-17 4 -29 11 -25 16 3 5 12 6 21 1 9 -6 30 -4 52 4 43 16 41 15 41 9z m130 1
c0 -3 -4 -8 -10 -11 -5 -3 -10 -1 -10 4 0 6 5 11 10 11 6 0 10 -2 10 -4z m-63
-13 c-4 -3 -1 -13 6 -21 10 -13 9 -14 -9 -4 -12 6 -23 10 -25 9 -2 -1 2 4 10
11 15 12 30 17 18 5z m-4369 -55 c-32 -28 -39 -22 -20 17 15 30 18 32 29 18
10 -13 9 -19 -9 -35z m4512 42 c0 -5 -12 -10 -27 -9 l-28 1 25 8 c14 4 26 8
28 9 1 1 2 -3 2 -9z m-4350 -20 c0 -5 -2 -10 -4 -10 -3 0 -8 5 -11 10 -3 6 -1
10 4 10 6 0 11 -4 11 -10z m4335 -10 c-3 -5 -16 -10 -28 -9 -21 0 -21 1 -2 9
28 12 37 12 30 0z m30 -16 c14 -6 10 -10 -15 -20 -40 -17 -40 -17 -40 0 0 8 8
17 18 19 9 3 18 5 19 6 1 0 9 -2 18 -5z m-4760 -34 c3 -6 -1 -7 -9 -4 -9 3
-16 1 -16 -6 0 -6 -5 -8 -11 -4 -8 4 -7 9 2 15 18 11 26 11 34 -1z m4960 0
c-3 -5 -12 -10 -18 -10 -7 0 -6 4 3 10 19 12 23 12 15 0z m65 -22 c0 -6 -6 -5
-15 2 -8 7 -15 14 -15 16 0 2 7 1 15 -2 8 -4 15 -11 15 -16z m-5136 -14 c3 -8
2 -12 -4 -9 -6 3 -10 10 -10 16 0 14 7 11 14 -7z m5076 8 c0 -4 -9 -8 -19 -8
-11 0 -17 4 -15 8 3 4 12 8 20 8 8 0 14 -4 14 -8z m24 -7 c3 -8 1 -15 -4 -15
-6 0 -10 7 -10 15 0 8 2 15 4 15 2 0 6 -7 10 -15z m190 -11 c8 -21 -12 -26
-23 -6 -7 14 -6 19 4 19 8 0 16 -6 19 -13z m-5173 -25 c11 -11 18 -23 15 -26
-3 -4 -14 3 -24 14 -9 11 -26 23 -37 26 -18 4 -18 5 3 6 12 0 31 -8 43 -20z
m4959 5 c0 -14 -3 -14 -15 -4 -8 7 -15 14 -15 16 0 2 7 4 15 4 8 0 15 -7 15
-16z m67 1 c9 -24 -1 -27 -15 -5 -8 13 -8 20 -2 20 6 0 13 -7 17 -15z m48 6
c-3 -5 4 -13 16 -16 12 -4 24 -2 28 3 4 7 12 8 21 2 13 -8 12 -10 -2 -10 -10
0 -18 -4 -18 -9 0 -19 -30 -19 -56 1 -25 20 -26 22 -8 29 26 10 26 10 19 0z
m-165 -11 c0 -5 -7 -10 -15 -10 -8 0 -15 5 -15 10 0 6 7 10 15 10 8 0 15 -4
15 -10z m305 0 c3 -5 1 -10 -4 -10 -6 0 -11 5 -11 10 0 6 2 10 4 10 3 0 8 -4
11 -10z m-5451 -14 c-10 -8 -21 -12 -24 -10 -5 6 21 24 34 24 6 0 1 -6 -10
-14z m5416 -16 c8 -5 11 -10 5 -10 -5 0 -17 5 -25 10 -8 5 -10 10 -5 10 6 0
17 -5 25 -10z m110 -11 c0 -5 -4 -9 -9 -9 -4 0 -8 -10 -7 -22 1 -15 9 -24 26
-28 25 -6 25 -6 -5 -12 -36 -7 -45 -3 -45 23 0 10 -5 19 -11 19 -6 0 -8 -9 -3
-22 6 -20 5 -21 -10 -9 -23 19 -20 27 15 41 18 8 28 18 25 26 -3 8 0 11 10 7
7 -3 14 -9 14 -14z m35 1 c3 -5 1 -10 -4 -10 -6 0 -11 5 -11 10 0 6 2 10 4 10
3 0 8 -4 11 -10z m-5737 -34 c-7 -8 -15 -12 -17 -11 -5 6 10 25 20 25 5 0 4
-6 -3 -14z m117 4 c3 -5 1 -10 -4 -10 -6 0 -11 5 -11 10 0 6 2 10 4 10 3 0 8
-4 11 -10z m5610 0 c3 -5 -1 -10 -9 -10 -9 0 -16 5 -16 10 0 6 4 10 9 10 6 0
13 -4 16 -10z m-5580 -10 c3 -5 1 -10 -4 -10 -6 0 -11 5 -11 10 0 6 2 10 4 10
3 0 8 -4 11 -10z m5779 -15 c-9 -14 -19 -23 -22 -20 -5 4 26 45 35 45 2 0 -4
-11 -13 -25z m-5954 0 c0 -8 -4 -15 -10 -15 -5 0 -7 7 -4 15 4 8 8 15 10 15 2
0 4 -7 4 -15z m140 -10 c16 -19 1 -19 -24 0 -16 12 -17 15 -4 15 8 0 21 -7 28
-15z m5693 -4 c3 -14 1 -18 -9 -14 -8 3 -14 11 -14 19 0 21 17 17 23 -5z m87
-41 c35 -32 51 -32 45 0 -2 12 2 20 10 20 11 0 12 -6 5 -24 -5 -13 -6 -27 -2
-32 4 -4 2 -4 -5 -1 -6 4 -13 3 -15 -3 -2 -6 -21 7 -42 27 -25 24 -41 33 -43
25 -3 -6 -9 -10 -14 -6 -12 7 -2 24 15 24 7 0 27 -13 46 -30z m-5826 10 c9 7
20 10 23 6 4 -4 1 -11 -7 -16 -9 -6 -10 -10 -3 -10 6 0 15 5 18 10 3 6 11 10
16 10 6 0 1 -13 -11 -30 -12 -16 -27 -30 -33 -30 -8 0 -8 3 1 9 10 6 10 10 -3
21 -12 10 -19 10 -27 2 -9 -9 -9 -12 1 -12 11 0 11 -3 1 -15 -7 -8 -9 -15 -5
-15 5 0 5 -3 2 -7 -4 -3 -18 4 -32 17 -16 15 -25 19 -25 10 0 -19 -13 -3 -17
20 -2 11 2 20 7 20 6 0 10 -4 10 -9 0 -5 7 -12 16 -15 12 -5 15 -2 10 10 -6
15 -4 15 11 3 15 -12 16 -12 11 3 -8 20 3 33 13 16 6 -9 11 -9 23 2z m5856 0
c0 -5 -5 -10 -11 -10 -5 0 -7 5 -4 10 3 6 8 10 11 10 2 0 4 -4 4 -10z m80 0
c0 -5 -8 -10 -17 -10 -15 0 -16 2 -3 10 19 12 20 12 20 0z m-6146 -22 c-5 -8
-2 -9 10 -5 10 4 15 3 11 -3 -9 -14 -32 -12 -39 3 -5 10 -7 10 -12 0 -3 -7
-13 -13 -22 -13 -13 0 -12 3 4 15 23 18 58 20 48 3z m56 8 c0 -3 -4 -8 -10
-11 -5 -3 -10 -1 -10 4 0 6 5 11 10 11 6 0 10 -2 10 -4z m-160 -20 c0 -2 -7
-7 -16 -10 -8 -3 -12 -2 -9 4 6 10 25 14 25 6z m60 -36 c0 -5 -2 -10 -4 -10
-3 0 -8 5 -11 10 -3 6 -1 10 4 10 6 0 11 -4 11 -10z m6281 -13 c-1 -12 -15 -9
-19 4 -3 6 1 10 8 8 6 -3 11 -8 11 -12z m-6371 -7 c-13 -9 -7 -14 12 -11 4 0
5 -6 2 -13 -4 -11 0 -13 15 -9 12 3 21 1 21 -5 0 -20 -41 -21 -53 -1 -13 21
-28 26 -23 7 1 -7 1 -10 -1 -5 -9 14 -33 7 -33 -10 0 -13 -3 -14 -12 -5 -13
13 -3 28 22 34 8 2 21 9 28 16 7 6 19 12 25 12 7 0 6 -4 -3 -10z m80 -30 c0
-5 -2 -10 -4 -10 -3 0 -8 5 -11 10 -3 6 -1 10 4 10 6 0 11 -4 11 -10z m6247
-12 c-3 -8 -6 -5 -6 6 -1 11 2 17 5 13 3 -3 4 -12 1 -19z m50 -30 c-3 -8 -6
-5 -6 6 -1 11 2 17 5 13 3 -3 4 -12 1 -19z m180 16 c-3 -3 -12 -4 -19 -1 -8 3
-5 6 6 6 11 1 17 -2 13 -5z m61 -89 c-3 -3 -9 2 -12 12 -6 14 -5 15 5 6 7 -7
10 -15 7 -18z m79 -6 c-5 -4 -7 -17 -4 -29 4 -17 3 -19 -9 -9 -12 10 -13 9 -8
-5 3 -9 1 -16 -5 -16 -15 0 -13 21 4 43 7 11 11 26 7 35 -5 14 -4 15 10 2 10
-10 12 -17 5 -21z m67 -7 c-5 -4 -12 -11 -15 -15 -3 -5 -9 -2 -12 5 -3 9 3 14
15 15 11 1 16 -1 12 -5z m66 -2 c0 -5 -4 -10 -10 -10 -5 0 -10 5 -10 10 0 6 5
10 10 10 6 0 10 -4 10 -10z m30 -30 c0 -5 -2 -10 -4 -10 -3 0 -8 5 -11 10 -3
6 -1 10 4 10 6 0 11 -4 11 -10z m24 -51 c-3 -6 0 -15 7 -20 9 -6 10 -9 2 -9
-15 0 -26 17 -18 30 3 6 8 10 11 10 3 0 2 -5 -2 -11z m148 -21 c-7 -7 -12 -8
-12 -2 0 14 12 26 19 19 2 -3 -1 -11 -7 -17z m68 -68 c0 -5 -5 -10 -11 -10 -5
0 -7 5 -4 10 3 6 8 10 11 10 2 0 4 -4 4 -10z m175 -10 c3 -5 2 -10 -4 -10 -5
0 -13 5 -16 10 -3 6 -2 10 4 10 5 0 13 -4 16 -10z m-55 -20 c0 -5 -8 -6 -17
-3 -12 5 -15 2 -10 -10 4 -11 1 -17 -8 -17 -18 0 -20 26 -2 33 21 9 37 8 37
-3z m39 -26 c-6 -8 -19 -14 -28 -13 -10 0 -8 3 7 10 14 5 20 13 16 20 -4 8 -3
9 5 5 9 -6 9 -11 0 -22z m151 16 c0 -5 -5 -10 -11 -10 -5 0 -7 5 -4 10 3 6 8
10 11 10 2 0 4 -4 4 -10z m-310 -11 c0 -5 -4 -8 -9 -5 -5 4 -7 -3 -4 -14 3
-11 0 -20 -6 -20 -6 0 -11 11 -11 25 0 16 6 25 15 25 8 0 15 -5 15 -11z m228
-110 c-22 -14 -31 -10 -14 7 9 8 17 21 17 27 1 7 3 4 6 -7 3 -10 -1 -22 -9
-27z m101 -10 c-16 -10 -23 -4 -14 10 3 6 11 8 17 5 6 -4 5 -9 -3 -15z m91 11
c0 -5 -4 -10 -10 -10 -5 0 -10 5 -10 10 0 6 5 10 10 10 6 0 10 -4 10 -10z
m-130 -10 c0 -5 -7 -10 -16 -10 -8 0 -12 -4 -9 -10 3 -5 1 -10 -4 -10 -17 0
-13 18 7 29 22 13 22 13 22 1z m77 -38 c-10 -2 -14 -9 -10 -20 5 -14 3 -15 -7
-5 -8 7 -14 21 -15 32 -1 17 1 18 24 8 18 -9 21 -13 8 -15z m-47 14 c0 -3 -4
-8 -10 -11 -5 -3 -10 -1 -10 4 0 6 5 11 10 11 6 0 10 -2 10 -4z m90 -26 c0 -5
-5 -10 -11 -10 -5 0 -7 5 -4 10 3 6 8 10 11 10 2 0 4 -4 4 -10z m-26 -35 c3
-8 1 -15 -4 -15 -6 0 -10 7 -10 15 0 8 2 15 4 15 2 0 6 -7 10 -15z m-24 -5 c0
-5 -4 -10 -10 -10 -5 0 -10 5 -10 10 0 6 5 10 10 10 6 0 10 -4 10 -10z m127
-74 c-10 -10 -18 -12 -22 -6 -8 13 18 41 29 30 5 -5 2 -15 -7 -24z m163 20 c0
-2 -7 -7 -16 -10 -8 -3 -12 -2 -9 4 6 10 25 14 25 6z m-120 -66 c0 -5 -5 -10
-11 -10 -5 0 -7 5 -4 10 3 6 8 10 11 10 2 0 4 -4 4 -10z m-43 -20 c2 -22 -12
-35 -22 -20 -3 5 -2 10 4 10 6 0 8 7 5 15 -4 8 -2 15 3 15 5 0 9 -9 10 -20z
m67 -60 c-10 -4 -21 -6 -24 -3 -8 7 24 22 34 16 5 -4 1 -10 -10 -13z m11 -53
c26 -14 27 -16 8 -17 -12 0 -23 6 -26 13 -2 6 -8 9 -12 4 -5 -4 -3 -13 3 -19
7 -7 12 -16 12 -20 0 -4 -9 1 -20 12 -11 11 -20 27 -20 35 0 8 -4 15 -10 15
-5 0 -7 7 -4 15 5 13 9 13 23 -3 9 -11 30 -26 46 -35z m58 6 c-3 -7 -10 -13
-15 -13 -6 0 -5 6 2 15 9 10 9 15 1 15 -6 0 -11 8 -11 17 0 15 2 15 14 -2 8
-11 12 -25 9 -32z m57 -23 c0 -5 -2 -10 -4 -10 -3 0 -8 5 -11 10 -3 6 -1 10 4
10 6 0 11 -4 11 -10z m-170 -15 c0 -2 -12 -16 -27 -30 -15 -14 -22 -25 -15
-25 11 0 11 -2 0 -13 -7 -7 -21 -16 -30 -20 -14 -5 -18 -1 -17 16 0 12 3 16 6
10 7 -19 23 -16 23 4 0 10 12 28 27 40 26 23 33 27 33 18z m84 -40 c11 -8 18
-17 15 -19 -2 -2 -15 4 -28 15 -27 22 -15 26 13 4z m-89 -35 c-3 -5 -12 -10
-18 -10 -7 0 -6 4 3 10 19 12 23 12 15 0z m135 -20 c0 -5 -5 -10 -11 -10 -5 0
-7 5 -4 10 3 6 8 10 11 10 2 0 4 -4 4 -10z m-155 -9 c-3 -2 0 -10 6 -18 14
-16 5 -17 -22 -3 -25 14 -24 26 1 26 10 0 17 -2 15 -5z m35 -1 c0 -5 -4 -10
-10 -10 -5 0 -10 5 -10 10 0 6 5 10 10 10 6 0 10 -4 10 -10z m10 -30 c0 -5 -5
-10 -11 -10 -5 0 -7 5 -4 10 3 6 8 10 11 10 2 0 4 -4 4 -10z m120 0 c0 -5 -4
-10 -10 -10 -5 0 -10 5 -10 10 0 6 5 10 10 10 6 0 10 -4 10 -10z m-162 -31
c-19 -13 -28 -11 -28 5 0 9 7 12 21 9 16 -4 17 -8 7 -14z m52 -2 c0 -14 -20
-37 -32 -37 -12 0 -10 19 5 35 15 18 27 19 27 2z m37 -23 c-3 -3 -12 -4 -19
-1 -8 3 -5 6 6 6 11 1 17 -2 13 -5z m40 -12 c-9 -2 -14 -8 -11 -14 4 -6 2 -8
-4 -5 -14 9 -64 -51 -55 -66 3 -7 3 -9 -2 -5 -4 4 -15 2 -24 -5 -13 -10 -13
-8 1 14 15 24 15 29 2 48 -10 14 -11 21 -4 21 7 0 14 -9 17 -21 5 -19 8 -18
40 16 21 22 38 33 46 28 8 -5 7 -9 -6 -11z m26 -17 c-3 -9 -8 -14 -10 -11 -3
3 -2 9 2 15 9 16 15 13 8 -4z m-32 -42 c-8 -15 -10 -15 -11 -2 0 17 10 32 18
25 2 -3 -1 -13 -7 -23z m-31 -23 c0 -5 -4 -10 -10 -10 -5 0 -10 5 -10 10 0 6
5 10 10 10 6 0 10 -4 10 -10z m-85 -60 c3 -5 1 -10 -4 -10 -6 0 -11 5 -11 10
0 6 2 10 4 10 3 0 8 -4 11 -10z m22 -32 c-3 -8 -6 -5 -6 6 -1 11 2 17 5 13 3
-3 4 -12 1 -19z m44 -7 c-11 -7 -11 -10 1 -17 18 -11 31 -44 18 -44 -6 0 -10
6 -10 14 0 23 -22 31 -32 12 -5 -9 -13 -14 -18 -11 -11 7 29 55 44 55 6 0 5
-4 -3 -9z m-57 -9 c2 -4 -5 -9 -17 -9 -17 -2 -19 0 -7 7 18 12 18 12 24 2z
m141 -2 c-3 -5 -12 -10 -18 -10 -7 0 -6 4 3 10 19 12 23 12 15 0z m-30 -70 c3
-5 1 -10 -4 -10 -6 0 -11 5 -11 10 0 6 2 10 4 10 3 0 8 -4 11 -10z m15 -34 c0
-11 -19 -15 -25 -6 -3 5 1 10 9 10 9 0 16 -2 16 -4z m-155 -25 c-3 -6 -11 -11
-17 -11 -6 0 -6 6 2 15 14 17 26 13 15 -4z m115 5 c0 -3 -4 -8 -10 -11 -5 -3
-10 -1 -10 4 0 6 5 11 10 11 6 0 10 -2 10 -4z m30 -20 c0 -3 -4 -8 -10 -11 -5
-3 -10 -1 -10 4 0 6 5 11 10 11 6 0 10 -2 10 -4z m-40 -36 c0 -5 -5 -10 -11
-10 -5 0 -7 5 -4 10 3 6 8 10 11 10 2 0 4 -4 4 -10z m-74 -37 c-10 -10 -19 5
-10 18 6 11 8 11 12 0 2 -7 1 -15 -2 -18z m94 10 c0 -5 -11 -13 -25 -20 -14
-6 -25 -8 -25 -4 0 5 10 13 23 19 28 14 27 13 27 5z m230 -57 c0 -2 -7 -7 -16
-10 -8 -3 -12 -2 -9 4 6 10 25 14 25 6z m-105 -65 c-6 -5 -25 10 -25 20 0 5 6
4 14 -3 8 -7 12 -15 11 -17z m-265 -42 c0 -6 10 -5 23 1 21 11 21 11 3 -4 -13
-11 -23 -13 -30 -6 -5 5 -24 10 -40 11 -30 1 -30 1 -6 8 28 8 50 4 50 -10z
m84 5 c3 -8 2 -12 -4 -9 -6 3 -10 10 -10 16 0 14 7 11 14 -7z m-40 -49 c3 -8
1 -15 -4 -15 -6 0 -10 7 -10 15 0 8 2 15 4 15 2 0 6 -7 10 -15z m-70 -20 c-4
-8 -8 -15 -10 -15 -2 0 -4 7 -4 15 0 8 4 15 10 15 5 0 7 -7 4 -15z m126 -21
c0 -8 -4 -12 -10 -9 -5 3 -10 10 -10 16 0 5 5 9 10 9 6 0 10 -7 10 -16z m101
-1 c13 -16 12 -17 -3 -4 -17 13 -22 21 -14 21 2 0 10 -8 17 -17z m-131 -3 c0
-5 -2 -10 -4 -10 -3 0 -8 5 -11 10 -3 6 -1 10 4 10 6 0 11 -4 11 -10z m260
-115 c11 -13 10 -14 -4 -9 -9 3 -16 10 -16 15 0 13 6 11 20 -6z m-97 -22 c-3
-22 -2 -24 5 -9 7 16 10 17 17 5 19 -29 13 -38 -21 -36 -23 1 -36 8 -40 20 -3
11 -12 16 -20 13 -8 -3 -14 -1 -14 4 0 13 27 13 35 0 3 -5 11 -10 17 -10 7 0
7 5 -1 14 -9 11 -9 15 1 19 23 9 25 7 21 -20z m257 -47 l25 -14 -28 1 c-15 1
-27 5 -27 9 0 4 -8 5 -17 2 -15 -5 -16 -4 -3 5 19 13 20 13 50 -3z m50 -25 c0
-5 -7 -12 -16 -15 -14 -5 -15 -4 -4 9 14 17 20 19 20 6z m47 -33 c-3 -8 -6 -5
-6 6 -1 11 2 17 5 13 3 -3 4 -12 1 -19z m4 -32 c5 3 9 -2 9 -10 0 -9 -4 -16
-10 -16 -5 0 -10 5 -10 11 0 8 -4 8 -14 0 -10 -8 -16 -9 -21 -1 -3 5 1 10 9
10 9 0 16 6 17 13 0 9 2 9 6 -1 2 -6 9 -10 14 -6z m-61 -136 c0 -5 -4 -10 -10
-10 -5 0 -10 5 -10 10 0 6 5 10 10 10 6 0 10 -4 10 -10z m-73 -106 c-3 -3 -12
-4 -19 -1 -8 3 -5 6 6 6 11 1 17 -2 13 -5z m-87 -224 c0 -5 -4 -10 -10 -10 -5
0 -10 5 -10 10 0 6 5 10 10 10 6 0 10 -4 10 -10z m-2991 -282 c1 -31 -3 -38
-18 -38 -11 0 -23 5 -27 11 -6 10 9 100 24 139 6 17 20 -56 21 -112z m-1532
45 c-2 -5 -11 -25 -21 -46 -14 -31 -20 -36 -32 -26 -17 14 -19 65 -1 72 19 8
59 8 54 0z m-950 -75 c-3 -8 -6 -5 -6 6 -1 11 2 17 5 13 3 -3 4 -12 1 -19z
m-366 -61 c1 -12 1 -40 0 -62 0 -22 0 -76 1 -120 3 -159 -6 -250 -23 -224 -7
11 -11 11 -17 1 -5 -7 -16 16 -29 65 -29 105 -33 132 -24 173 4 19 4 60 -1 90
-6 47 -4 58 13 76 11 12 33 21 49 22 24 0 30 -4 31 -21z m-1478 -51 c4 -10 1
-13 -9 -9 -15 6 -19 23 -5 23 5 0 11 -7 14 -14z m2506 -63 c-1 -16 -5 -41 -9
-58 -7 -24 -8 -18 -7 28 0 31 4 57 9 57 4 0 7 -12 7 -27z m-368 -25 c7 -24 13
-86 14 -138 1 -52 5 -126 9 -165 3 -38 4 -65 1 -59 -3 6 -23 10 -45 8 -32 -3
-40 0 -40 14 -1 9 -7 3 -15 -15 -8 -18 -16 -33 -18 -33 -9 0 20 70 37 89 19
21 19 14 -8 206 -14 97 -14 100 6 118 32 27 46 21 59 -25z m2189 -50 c23 -28
9 -79 -19 -71 -20 5 -55 69 -46 84 11 17 46 9 65 -13z m-1843 -50 c-3 -7 -5
-2 -5 12 0 14 2 19 5 13 2 -7 2 -19 0 -25z m1394 -210 c13 -48 17 -53 41 -51
28 2 25 8 43 -104 9 -58 -4 -35 -16 27 -7 38 -17 60 -25 60 -8 0 -14 -5 -14
-12 0 -9 -3 -9 -12 0 -15 15 -48 132 -38 132 4 0 14 -24 21 -52z m-604 -30 c0
-13 2 -52 6 -88 4 -38 4 -57 -2 -45 -13 31 -23 155 -12 155 5 0 9 -10 8 -22z
m2293 -53 c0 -5 -5 -3 -10 5 -5 8 -10 20 -10 25 0 6 5 3 10 -5 5 -8 10 -19 10
-25z m-2375 -48 c6 -37 7 -63 2 -58 -4 4 -11 34 -14 65 -3 31 -10 56 -14 56
-11 0 -11 -15 0 -61 5 -21 5 -43 0 -50 -6 -10 -9 -5 -9 16 0 17 -4 44 -9 62
-10 34 -5 45 18 41 10 -2 18 -25 26 -71z m-1018 31 c-3 -8 -6 -5 -6 6 -1 11 2
17 5 13 3 -3 4 -12 1 -19z m1737 -62 c-3 -15 -8 -25 -11 -23 -2 3 -1 17 3 31
3 15 8 25 11 23 2 -3 1 -17 -3 -31z m-1400 -12 c3 -8 2 -12 -4 -9 -6 3 -10 10
-10 16 0 14 7 11 14 -7z m-34 -18 c0 -3 -4 -8 -10 -11 -5 -3 -10 -1 -10 4 0 6
5 11 10 11 6 0 10 -2 10 -4z m817 -18 c-3 -8 -6 -5 -6 6 -1 11 2 17 5 13 3 -3
4 -12 1 -19z m94 -5 c13 -16 12 -17 -3 -4 -10 7 -18 15 -18 17 0 8 8 3 21 -13z
m1429 13 c0 -2 -7 -6 -15 -10 -8 -3 -15 -1 -15 4 0 6 7 10 15 10 8 0 15 -2 15
-4z m-2813 -58 c-3 -7 -5 -2 -5 12 0 14 2 19 5 13 2 -7 2 -19 0 -25z m-580 0
c-3 -8 -6 -5 -6 6 -1 11 2 17 5 13 3 -3 4 -12 1 -19z m1220 -20 c-3 -8 -6 -5
-6 6 -1 11 2 17 5 13 3 -3 4 -12 1 -19z m40 -20 c-3 -7 -5 -2 -5 12 0 14 2 19
5 13 2 -7 2 -19 0 -25z m-697 -13 c0 -3 -16 -11 -35 -19 -19 -8 -35 -22 -35
-30 0 -8 -3 -21 -6 -29 -4 -11 2 -17 23 -20 27 -4 26 -4 -5 -6 -33 -1 -33 -1
-26 37 4 20 9 39 11 42 3 4 49 23 71 29 1 1 2 -1 2 -4z m530 -15 c0 -17 -7
-20 -40 -20 -22 0 -40 4 -40 8 0 4 16 6 35 4 27 -3 35 -1 35 12 0 9 2 16 5 16
3 0 5 -9 5 -20z m393 3 c-7 -2 -19 -2 -25 0 -7 3 -2 5 12 5 14 0 19 -2 13 -5z
m-669 -35 c-4 -6 -10 -5 -15 3 -14 22 -10 33 6 19 8 -7 12 -17 9 -22z m2293
-30 c-3 -7 -5 -2 -5 12 0 14 2 19 5 13 2 -7 2 -19 0 -25z m350 0 c-3 -8 -6 -5
-6 6 -1 11 2 17 5 13 3 -3 4 -12 1 -19z m-2792 2 c-3 -5 -16 -10 -28 -9 -20 1
-20 2 3 9 14 4 26 8 28 9 2 1 0 -3 -3 -9z m-68 -6 c-3 -3 -12 -4 -19 -1 -8 3
-5 6 6 6 11 1 17 -2 13 -5z"/>
<path d="M405 5300 c3 -5 8 -10 11 -10 2 0 4 5 4 10 0 6 -5 10 -11 10 -5 0 -7
-4 -4 -10z"/>
<path d="M2820 2090 c0 -4 9 -10 20 -13 11 -3 20 -2 20 3 0 4 -9 10 -20 13
-11 3 -20 2 -20 -3z"/>
<path d="M2876 5871 c-3 -5 1 -14 9 -21 8 -7 15 -23 15 -36 0 -16 4 -22 14
-18 8 3 12 14 8 27 -6 27 -39 60 -46 48z"/>
<path d="M2950 5869 c0 -5 5 -7 10 -4 6 3 10 8 10 11 0 2 -4 4 -10 4 -5 0 -10
-5 -10 -11z"/>
<path d="M1973 5773 c1 -16 4 -19 14 -12 7 6 17 8 22 4 7 -3 8 0 5 10 -5 11
-10 13 -19 5 -9 -8 -14 -7 -18 2 -3 7 -4 3 -4 -9z"/>
<path d="M2931 5774 c0 -11 3 -14 6 -6 3 7 2 16 -1 19 -3 4 -6 -2 -5 -13z"/>
<path d="M3767 5769 c11 -12 26 -18 32 -15 18 12 12 24 -9 19 -11 -3 -20 0
-20 6 0 6 -5 11 -12 11 -7 0 -3 -9 9 -21z"/>
<path d="M4556 5763 c7 -37 14 -42 14 -10 0 14 -4 28 -9 32 -6 3 -8 -6 -5 -22z"/>
<path d="M1649 5774 c6 -3 8 -11 5 -18 -3 -7 3 -19 13 -27 16 -13 17 -12 5 2
-7 9 -11 22 -10 29 2 7 -3 14 -10 16 -7 1 -8 0 -3 -2z"/>
<path d="M2870 5765 c7 -9 15 -13 17 -11 7 7 -7 26 -19 26 -6 0 -6 -6 2 -15z"/>
<path d="M3830 5770 c0 -5 5 -10 10 -10 6 0 10 5 10 10 0 6 -4 10 -10 10 -5 0
-10 -4 -10 -10z"/>
<path d="M3921 5771 c-11 -7 -11 -9 0 -14 11 -5 10 -8 -3 -17 -24 -15 -23 -29
2 -23 12 3 18 8 15 11 -2 3 0 11 6 19 9 10 8 13 0 13 -7 0 -9 5 -6 10 8 12 4
12 -14 1z"/>
<path d="M3971 5763 c-18 -19 -10 -25 12 -8 10 7 15 15 10 18 -4 3 -14 -2 -22
-10z"/>
<path d="M3296 5754 c-3 -8 -2 -13 3 -9 5 3 12 -1 14 -7 3 -7 6 -3 6 10 1 25
-14 30 -23 6z"/>
<path d="M4212 5758 c3 -7 15 -14 29 -16 28 -3 57 13 45 25 -5 4 -11 2 -13 -4
-3 -7 -9 -13 -14 -13 -6 0 -7 5 -4 10 4 6 -5 10 -20 10 -17 0 -25 -5 -23 -12z"/>
<path d="M1680 5751 c0 -5 7 -12 16 -15 14 -5 15 -4 4 9 -14 17 -20 19 -20 6z"/>
<path d="M3733 5745 c-3 -9 -3 -18 -1 -21 3 -3 8 4 11 16 6 23 -1 27 -10 5z"/>
<path d="M4170 5750 c0 -5 5 -10 11 -10 5 0 7 5 4 10 -3 6 -8 10 -11 10 -2 0
-4 -4 -4 -10z"/>
<path d="M4460 5744 c0 -8 5 -12 10 -9 6 4 8 11 5 16 -9 14 -15 11 -15 -7z"/>
<path d="M1589 5735 c-12 -12 -22 -14 -41 -6 -21 8 -28 7 -32 -5 -9 -24 -8
-25 13 -12 15 9 24 8 46 -6 19 -13 26 -14 23 -4 -3 7 -1 21 4 31 11 21 7 22
-13 2z"/>
<path d="M1730 5740 c0 -5 5 -10 11 -10 5 0 7 5 4 10 -3 6 -8 10 -11 10 -2 0
-4 -4 -4 -10z"/>
<path d="M3841 5731 c-1 -18 2 -21 12 -12 8 6 17 8 21 4 4 -4 4 1 0 11 -5 12
-9 14 -14 6 -6 -9 -9 -9 -13 1 -3 8 -6 3 -6 -10z"/>
<path d="M4322 5730 c0 -14 2 -19 5 -12 2 6 2 18 0 25 -3 6 -5 1 -5 -13z"/>
<path d="M1800 5736 c0 -2 7 -7 16 -10 8 -3 12 -2 9 4 -6 10 -25 14 -25 6z"/>
<path d="M2815 5730 c-3 -6 1 -7 9 -4 18 7 21 14 7 14 -6 0 -13 -4 -16 -10z"/>
<path d="M3108 5733 c7 -3 16 -2 19 1 4 3 -2 6 -13 5 -11 0 -14 -3 -6 -6z"/>
<path d="M3466 5732 c-3 -5 1 -9 9 -9 8 0 15 4 15 9 0 4 -4 8 -9 8 -6 0 -12
-4 -15 -8z"/>
<path d="M3680 5729 c0 -5 5 -7 10 -4 6 3 10 8 10 11 0 2 -4 4 -10 4 -5 0 -10
-5 -10 -11z"/>
<path d="M3980 5731 c0 -6 5 -13 10 -16 6 -3 10 1 10 9 0 9 -4 16 -10 16 -5 0
-10 -4 -10 -9z"/>
<path d="M4380 5731 c0 -5 9 -7 20 -4 11 3 20 7 20 9 0 2 -9 4 -20 4 -11 0
-20 -4 -20 -9z"/>
<path d="M1625 5720 c-3 -5 -1 -10 4 -10 6 0 11 5 11 10 0 6 -2 10 -4 10 -3 0
-8 -4 -11 -10z"/>
<path d="M2300 5721 c0 -11 31 -24 38 -16 3 3 0 5 -7 5 -7 0 -9 5 -6 10 3 6
-1 10 -9 10 -9 0 -16 -4 -16 -9z"/>
<path d="M3500 5718 c0 -10 4 -18 9 -18 5 0 11 -8 13 -17 2 -10 6 -14 10 -8 4
6 -2 22 -13 35 -15 20 -19 22 -19 8z"/>
<path d="M3810 5720 c-13 -8 -12 -10 3 -10 9 0 17 5 17 10 0 12 -1 12 -20 0z"/>
<path d="M4210 5720 c0 -5 5 -10 10 -10 6 0 10 5 10 10 0 6 -4 10 -10 10 -5 0
-10 -4 -10 -10z"/>
<path d="M4260 5720 c0 -6 7 -10 15 -10 8 0 15 2 15 4 0 2 -7 6 -15 10 -8 3
-15 1 -15 -4z"/>
<path d="M2365 5699 c6 -30 10 -32 25 -14 11 13 10 14 -4 9 -12 -5 -15 -2 -10
10 3 9 1 16 -4 16 -6 0 -9 -10 -7 -21z"/>
<path d="M2490 5703 c0 -15 2 -15 9 -4 5 8 16 11 26 8 9 -4 14 -3 10 3 -11 17
-45 11 -45 -7z"/>
<path d="M4546 5708 c3 -5 10 -6 15 -3 13 9 11 12 -6 12 -8 0 -12 -4 -9 -9z"/>
<path d="M2940 5700 c0 -5 7 -7 15 -4 8 4 15 8 15 10 0 2 -7 4 -15 4 -8 0 -15
-4 -15 -10z"/>
<path d="M3462 5697 c-8 -10 -5 -13 16 -15 15 -1 23 2 17 6 -5 4 -13 11 -16
15 -3 4 -11 2 -17 -6z"/>
<path d="M3860 5699 c0 -5 5 -7 10 -4 6 3 10 8 10 11 0 2 -4 4 -10 4 -5 0 -10
-5 -10 -11z"/>
<path d="M1526 5684 c-4 -10 -1 -14 6 -12 15 5 23 28 10 28 -5 0 -13 -7 -16
-16z"/>
<path d="M2332 5676 c7 -8 15 -12 17 -11 5 6 -10 25 -20 25 -5 0 -4 -6 3 -14z"/>
<path d="M2520 5686 c0 -2 7 -7 16 -10 8 -3 12 -2 9 4 -6 10 -25 14 -25 6z"/>
<path d="M1415 5670 c3 -5 8 -10 11 -10 2 0 4 5 4 10 0 6 -5 10 -11 10 -5 0
-7 -4 -4 -10z"/>
<path d="M1620 5665 c0 -8 2 -15 4 -15 2 0 6 7 10 15 3 8 1 15 -4 15 -6 0 -10
-7 -10 -15z"/>
<path d="M2560 5670 c0 -5 5 -10 10 -10 6 0 10 5 10 10 0 6 -4 10 -10 10 -5 0
-10 -4 -10 -10z"/>
<path d="M5067 5649 c-25 -30 -27 -31 -27 -10 0 12 -4 19 -10 16 -16 -10 -12
-32 7 -39 9 -4 20 -1 24 5 10 17 59 20 59 4 0 -8 -8 -11 -22 -8 -21 4 -22 3
-5 -10 21 -17 22 -47 2 -47 -8 0 -15 -4 -15 -10 0 -17 18 -11 40 12 11 12 16
24 11 27 -4 3 -8 16 -7 28 0 12 -3 22 -9 22 -5 0 -12 10 -15 22 -5 20 -7 20
-33 -12z"/>
<path d="M4865 5652 c3 -10 -1 -11 -16 -7 -15 5 -19 4 -15 -4 9 -14 43 -14 52
0 4 8 9 7 15 -2 6 -10 8 -8 7 7 -2 16 -8 21 -25 20 -15 -1 -21 -6 -18 -14z"/>
<path d="M4983 5662 c-12 -2 -27 -11 -35 -19 -11 -15 -11 -16 5 -10 11 4 16 3
12 -3 -3 -6 1 -10 10 -10 10 0 13 5 9 12 -4 7 -3 8 5 4 6 -4 14 0 17 9 8 20 5
22 -23 17z"/>
<path d="M4930 5610 c0 -5 7 -10 16 -10 8 0 12 5 9 10 -3 6 -10 10 -16 10 -5
0 -9 -4 -9 -10z"/>
<path d="M5000 5600 c0 -19 3 -21 12 -12 9 9 9 15 0 24 -9 9 -12 7 -12 -12z"/>
<path d="M5160 5598 c0 -5 14 -8 30 -8 17 0 30 4 30 10 0 5 -13 8 -30 7 -16
-1 -30 -5 -30 -9z"/>
<path d="M1121 5591 c-8 -5 -9 -11 -3 -15 5 -3 12 1 16 9 6 17 6 18 -13 6z"/>
<path d="M4865 5590 c-3 -5 -1 -10 4 -10 6 0 11 5 11 10 0 6 -2 10 -4 10 -3 0
-8 -4 -11 -10z"/>
<path d="M4917 5589 c7 -7 15 -10 18 -7 3 3 -2 9 -12 12 -14 6 -15 5 -6 -5z"/>
<path d="M940 5560 c0 -5 5 -10 10 -10 6 0 10 5 10 10 0 6 -4 10 -10 10 -5 0
-10 -4 -10 -10z"/>
<path d="M1150 5566 c0 -2 8 -10 18 -17 15 -13 16 -12 3 4 -13 16 -21 21 -21
13z"/>
<path d="M5154 5561 c3 -5 15 -7 26 -4 28 7 25 13 -6 13 -14 0 -23 -4 -20 -9z"/>
<path d="M5308 5563 c7 -3 16 -2 19 1 4 3 -2 6 -13 5 -11 0 -14 -3 -6 -6z"/>
<path d="M916 5546 c6 -16 34 -30 34 -18 0 10 -22 32 -32 32 -4 0 -5 -6 -2
-14z"/>
<path d="M5226 5535 c25 -19 40 -19 20 0 -8 8 -20 15 -27 15 -7 0 -4 -6 7 -15z"/>
<path d="M956 5514 c-5 -12 -2 -15 10 -10 8 3 18 6 20 6 2 0 4 5 4 10 0 16
-27 11 -34 -6z"/>
<path d="M5195 5519 c-4 -6 -5 -12 -2 -15 2 -3 7 2 10 11 7 17 1 20 -8 4z"/>
<path d="M5490 5510 c0 -5 5 -10 11 -10 5 0 7 5 4 10 -3 6 -8 10 -11 10 -2 0
-4 -4 -4 -10z"/>
<path d="M5378 5503 c7 -3 16 -2 19 1 4 3 -2 6 -13 5 -11 0 -14 -3 -6 -6z"/>
<path d="M5457 5499 c7 -7 15 -10 18 -7 3 3 -2 9 -12 12 -14 6 -15 5 -6 -5z"/>
<path d="M906 5467 c3 -10 9 -15 12 -12 3 3 0 11 -7 18 -10 9 -11 8 -5 -6z"/>
<path d="M1010 5470 c0 -5 5 -10 10 -10 6 0 10 5 10 10 0 6 -4 10 -10 10 -5 0
-10 -4 -10 -10z"/>
<path d="M5483 5445 c-3 -9 -3 -18 -1 -21 3 -3 8 4 11 16 6 23 -1 27 -10 5z"/>
<path d="M5660 5446 c0 -8 -5 -16 -11 -18 -6 -2 -1 -12 12 -23 l22 -20 -12 23
c-8 14 -8 22 -1 22 5 0 10 7 10 15 0 8 -4 15 -10 15 -5 0 -10 -6 -10 -14z"/>
<path d="M630 5440 c0 -5 -6 -10 -14 -10 -8 0 -18 -9 -21 -20 -3 -11 -11 -20
-16 -20 -5 0 -9 -7 -9 -15 0 -8 -4 -15 -9 -15 -14 0 -21 -29 -9 -36 7 -4 8 -3
4 4 -5 8 2 12 21 13 15 0 23 3 16 5 -13 6 -6 32 13 52 7 7 15 8 18 3 4 -5 -1
-16 -9 -25 -9 -9 -11 -17 -5 -21 5 -3 10 -1 10 4 0 6 7 11 16 11 10 0 14 6 10
15 -7 19 1 19 20 0 9 -8 12 -20 8 -26 -5 -8 -3 -9 5 -5 7 5 10 15 7 23 -4 9
-1 22 5 29 8 10 8 14 0 14 -6 0 -11 -4 -11 -9 0 -5 -9 -7 -20 -4 -15 4 -19 11
-15 24 4 11 2 19 -4 19 -6 0 -11 -4 -11 -10z"/>
<path d="M5700 5440 c0 -8 5 -22 10 -30 9 -13 10 -13 10 0 0 8 -5 22 -10 30
-9 13 -10 13 -10 0z"/>
<path d="M5762 5426 c7 -8 15 -12 17 -10 2 2 10 -1 18 -7 7 -6 13 -8 13 -4 0
11 -32 34 -48 35 -10 0 -10 -3 0 -14z"/>
<path d="M5860 5420 c0 -5 5 -10 11 -10 5 0 7 -5 3 -12 -4 -7 -3 -8 4 -4 17
10 15 36 -3 36 -8 0 -15 -4 -15 -10z"/>
<path d="M5910 5421 c0 -5 5 -13 10 -16 6 -3 10 -2 10 4 0 5 -4 13 -10 16 -5
3 -10 2 -10 -4z"/>
<path d="M830 5411 c0 -6 4 -12 8 -15 5 -3 9 1 9 9 0 8 -4 15 -9 15 -4 0 -8
-4 -8 -9z"/>
<path d="M710 5399 c0 -5 5 -7 10 -4 6 3 10 8 10 11 0 2 -4 4 -10 4 -5 0 -10
-5 -10 -11z"/>
<path d="M5606 5394 c-5 -14 -4 -15 9 -4 17 14 19 20 6 20 -5 0 -12 -7 -15
-16z"/>
<path d="M5740 5400 c0 -12 50 -34 58 -25 7 7 -3 16 -20 19 -7 1 -19 5 -25 9
-8 5 -13 4 -13 -3z"/>
<path d="M5841 5382 c0 -7 -6 -10 -12 -7 -6 4 -5 -2 3 -14 13 -22 28 -28 28
-12 0 5 6 11 13 14 6 2 4 3 -5 2 -9 -2 -19 5 -21 14 -3 9 -5 10 -6 3z"/>
<path d="M5990 5335 c0 -8 5 -15 10 -15 6 0 10 7 10 15 0 8 -4 15 -10 15 -5 0
-10 -7 -10 -15z"/>
<path d="M6033 5335 c0 -8 4 -12 9 -9 5 3 6 10 3 15 -9 13 -12 11 -12 -6z"/>
<path d="M6070 5320 c0 -6 7 -10 15 -10 8 0 15 2 15 4 0 2 -7 6 -15 10 -8 3
-15 1 -15 -4z"/>
<path d="M6015 5289 c-4 -6 -5 -12 -2 -15 2 -3 7 2 10 11 7 17 1 20 -8 4z"/>
<path d="M6342 5268 c-18 -18 -14 -27 8 -21 21 6 26 18 12 27 -5 3 -14 0 -20
-6z"/>
<path d="M365 5250 c-8 -13 3 -30 18 -30 7 0 6 4 -3 10 -13 9 -13 11 0 20 9 6
10 10 3 10 -6 0 -15 -4 -18 -10z"/>
<path d="M6105 5240 c-3 -6 1 -7 9 -4 18 7 21 14 7 14 -6 0 -13 -4 -16 -10z"/>
<path d="M280 5230 c-8 -5 -11 -12 -7 -17 5 -4 12 -1 18 7 8 13 11 12 20 -3 7
-12 17 -16 30 -12 20 7 27 -9 9 -18 -6 -3 -5 -4 2 -3 26 5 17 26 -18 41 -43
18 -36 17 -54 5z"/>
<path d="M6310 5189 c0 -5 5 -7 10 -4 6 3 10 8 10 11 0 2 -4 4 -10 4 -5 0 -10
-5 -10 -11z"/>
<path d="M6527 5193 c-16 -15 -7 -34 13 -28 14 5 20 2 20 -10 0 -9 5 -13 10
-10 6 3 10 15 10 27 0 15 -4 18 -17 14 -9 -4 -19 -2 -23 4 -3 6 -9 7 -13 3z"/>
<path d="M6396 5177 c3 -10 9 -15 12 -12 3 3 0 11 -7 18 -10 9 -11 8 -5 -6z"/>
<path d="M387 5159 c7 -7 15 -10 18 -7 3 3 -2 9 -12 12 -14 6 -15 5 -6 -5z"/>
<path d="M6517 5143 c-4 -3 -7 -13 -7 -22 1 -13 3 -13 11 2 11 19 8 33 -4 20z"/>
<path d="M6460 5110 c-12 -7 -10 -9 7 -7 12 0 19 5 17 9 -6 10 -6 10 -24 -2z"/>
<path d="M6650 5107 c-24 -7 -29 -12 -17 -14 9 -3 17 -9 17 -14 0 -5 5 -9 10
-9 6 0 10 6 10 14 0 8 6 16 13 19 27 10 -1 13 -33 4z"/>
<path d="M6588 5103 c-14 -4 -15 -8 -5 -24 13 -21 42 -25 53 -7 4 6 3 8 -4 5
-5 -4 -17 -4 -26 -1 -13 5 -14 9 -5 20 6 8 10 13 8 13 -2 -1 -12 -3 -21 -6z"/>
<path d="M6680 5081 c0 -5 5 -13 10 -16 6 -3 10 -2 10 4 0 5 -4 13 -10 16 -5
3 -10 2 -10 -4z"/>
<path d="M6716 5034 c-5 -14 -4 -15 8 -5 11 10 15 9 19 -4 4 -13 5 -12 3 1 -2
24 -22 29 -30 8z"/>
<path d="M4525 4983 c-15 -27 -29 -59 -31 -72 -3 -13 -9 -32 -15 -43 -5 -10
-8 -18 -5 -18 11 0 104 51 113 62 19 24 21 71 6 95 -23 34 -38 28 -68 -24z"/>
<path d="M4912 5018 c-7 -7 -12 -19 -12 -27 0 -9 -11 -40 -25 -69 -14 -30 -25
-56 -25 -58 0 -2 18 -4 40 -4 23 0 55 -7 72 -16 29 -15 31 -15 59 12 16 15 29
36 29 45 0 10 7 22 16 27 19 10 11 32 -11 32 -11 0 -12 6 -5 25 10 26 16 24
-95 41 -17 2 -36 -1 -43 -8z"/>
<path d="M6671 5014 c0 -11 3 -14 6 -6 3 7 2 16 -1 19 -3 4 -6 -2 -5 -13z"/>
<path d="M6770 5014 c0 -8 5 -12 10 -9 6 3 10 10 10 16 0 5 -4 9 -10 9 -5 0
-10 -7 -10 -16z"/>
<path d="M5262 4970 c-9 -21 -35 -163 -44 -239 -2 -13 3 -26 10 -28 8 -3 12 9
12 41 0 25 4 46 9 46 5 0 12 12 16 28 4 15 10 21 12 15 8 -22 30 -14 41 15 21
53 22 70 11 96 -13 29 -24 33 -35 14 -6 -9 -10 -5 -15 12 l-6 25 -11 -25z"/>
<path d="M4115 4963 c-3 -10 -8 -73 -10 -140 -4 -108 -3 -123 12 -123 13 0 15
8 10 48 -6 40 -5 45 7 30 20 -27 29 -22 22 12 -5 26 -2 32 19 40 29 11 40 46
31 95 -7 37 -15 41 -47 25 -16 -9 -19 -7 -19 10 0 25 -15 26 -25 3z"/>
<path d="M7042 4909 c0 -16 4 -27 9 -24 11 8 12 42 1 49 -5 3 -9 -8 -10 -25z"/>
<path d="M6865 4920 c-3 -5 -1 -10 4 -10 6 0 11 5 11 10 0 6 -2 10 -4 10 -3 0
-8 -4 -11 -10z"/>
<path d="M6900 4910 c0 -5 5 -10 10 -10 6 0 10 5 10 10 0 6 -4 10 -10 10 -5 0
-10 -4 -10 -10z"/>
<path d="M7126 4877 c3 -10 9 -15 12 -12 3 3 0 11 -7 18 -10 9 -11 8 -5 -6z"/>
<path d="M5706 4839 c-3 -13 -8 -46 -11 -73 -4 -27 -9 -55 -12 -63 -4 -9 3
-16 17 -20 19 -5 21 -12 20 -52 -3 -64 -2 -73 13 -69 6 3 14 27 17 54 l6 49
19 -38 c17 -34 21 -36 32 -22 9 13 9 22 1 35 -9 13 -6 27 10 61 22 47 20 90
-4 110 -8 6 -14 18 -14 25 0 8 -6 14 -14 14 -7 0 -27 3 -44 6 -27 5 -32 3 -36
-17z"/>
<path d="M3646 4843 c-3 -4 -6 -25 -6 -47 1 -51 28 -91 58 -84 26 7 37 -19 27
-68 -5 -30 -3 -34 15 -34 17 0 19 4 14 25 -4 16 0 34 10 50 9 13 16 41 16 62
0 37 -3 39 -64 70 -35 17 -67 29 -70 26z"/>
<path d="M7310 4821 c0 -6 5 -13 11 -16 6 -4 8 -13 5 -20 -3 -9 2 -11 17 -7
12 3 16 7 10 9 -7 3 -9 12 -6 21 4 15 3 15 -6 2 -9 -13 -11 -13 -11 3 0 9 -4
17 -10 17 -5 0 -10 -4 -10 -9z"/>
<path d="M7175 4810 c-19 -8 -19 -9 3 -9 12 -1 22 4 22 9 0 6 -1 10 -2 9 -2 0
-12 -4 -23 -9z"/>
<path d="M7376 4784 c-10 -25 1 -29 14 -5 6 12 7 21 1 21 -5 0 -12 -7 -15 -16z"/>
<path d="M7350 4758 c0 -9 5 -20 10 -23 13 -8 13 5 0 25 -8 13 -10 13 -10 -2z"/>
<path d="M7423 4733 c-15 -5 -17 -23 -4 -23 5 0 11 7 15 15 3 8 4 15 3 14 -1
0 -8 -3 -14 -6z"/>
<path d="M7390 4690 c-8 -5 -10 -10 -5 -10 6 0 17 5 25 10 8 5 11 10 5 10 -5
0 -17 -5 -25 -10z"/>
<path d="M7440 4661 c0 -17 18 -21 24 -6 3 9 0 15 -9 15 -8 0 -15 -4 -15 -9z"/>
<path d="M7395 4650 c3 -5 8 -10 11 -10 2 0 4 5 4 10 0 6 -5 10 -11 10 -5 0
-7 -4 -4 -10z"/>
<path d="M3313 4604 c3 -16 1 -62 -5 -102 -8 -52 -8 -76 0 -84 8 -8 13 3 17
38 6 45 9 50 33 49 26 0 27 3 30 54 2 41 0 52 -10 48 -7 -3 -21 -8 -30 -12
-13 -5 -18 -2 -18 8 0 9 -5 19 -11 23 -8 5 -10 -2 -6 -22z"/>
<path d="M7518 4612 c9 -10 19 -14 21 -9 2 5 -3 13 -10 18 -24 15 -30 10 -11
-9z"/>
<path d="M7464 4607 c3 -10 6 -23 6 -28 0 -5 5 -9 10 -9 6 0 10 7 10 16 0 14
1 14 16 0 8 -9 23 -16 32 -15 13 0 12 2 -4 9 -12 5 -25 13 -29 19 -3 6 -11 8
-17 5 -6 -4 -15 0 -20 7 -8 11 -8 10 -4 -4z"/>
<path d="M7555 4600 c-3 -5 -2 -10 4 -10 5 0 13 5 16 10 3 6 2 10 -4 10 -5 0
-13 -4 -16 -10z"/>
<path d="M6211 4561 l-64 -16 -3 -68 c-3 -63 -2 -70 25 -98 25 -26 32 -28 55
-19 43 16 52 12 71 -30 19 -43 35 -52 35 -20 0 11 6 20 14 20 7 0 19 6 25 14
9 11 5 15 -20 20 -23 4 -30 10 -25 22 3 8 -1 43 -8 77 -8 34 -17 74 -21 90 -3
15 -9 27 -13 26 -4 0 -36 -8 -71 -18z"/>
<path d="M7610 4569 c0 -7 -9 -9 -21 -6 -16 4 -18 3 -9 -8 9 -11 16 -12 31 -2
20 13 25 27 9 27 -5 0 -10 -5 -10 -11z"/>
<path d="M7515 4550 c-3 -5 -3 -10 2 -10 4 0 1 -5 -7 -10 -13 -9 -13 -10 1
-10 8 0 24 7 35 15 18 13 18 14 -5 8 -17 -4 -22 -3 -17 5 4 7 5 12 2 12 -3 0
-8 -4 -11 -10z"/>
<path d="M7550 4520 c-8 -5 -12 -12 -9 -15 4 -3 12 1 19 10 14 17 11 19 -10 5z"/>
<path d="M7595 4520 c3 -5 8 -10 11 -10 2 0 4 5 4 10 0 6 -5 10 -11 10 -5 0
-7 -4 -4 -10z"/>
<path d="M7634 4508 c7 -24 -3 -48 -20 -48 -8 0 -14 -4 -14 -10 0 -5 -8 -10
-17 -10 -15 0 -16 -2 -3 -10 11 -7 18 -5 27 6 7 10 19 13 32 9 17 -5 21 -2 21
17 0 13 -7 33 -16 44 -13 16 -15 16 -10 2z"/>
<path d="M7470 4480 c0 -5 7 -7 15 -4 8 4 15 8 15 10 0 2 -7 4 -15 4 -8 0 -15
-4 -15 -10z"/>
<path d="M7580 4475 c0 -13 4 -14 23 -4 33 17 33 19 4 19 -18 0 -27 -5 -27
-15z"/>
<path d="M7513 4455 c-3 -9 -3 -18 -1 -21 3 -3 8 4 11 16 6 23 -1 27 -10 5z"/>
<path d="M7620 4430 c0 -6 5 -10 10 -10 6 0 10 -4 10 -10 0 -5 -11 -10 -25
-10 -15 0 -24 -5 -22 -12 1 -7 -7 -13 -18 -13 -14 0 -19 -6 -17 -20 5 -26 12
-33 12 -11 0 12 6 15 24 12 18 -3 23 -1 20 9 -3 7 3 16 15 20 24 7 28 40 6 49
-8 3 -15 1 -15 -4z"/>
<path d="M7555 4410 c-3 -5 -1 -10 4 -10 6 0 11 5 11 10 0 6 -2 10 -4 10 -3 0
-8 -4 -11 -10z"/>
<path d="M7455 4380 c3 -5 11 -10 16 -10 6 0 7 5 4 10 -3 6 -11 10 -16 10 -6
0 -7 -4 -4 -10z"/>
<path d="M7492 4368 c2 -6 15 -15 29 -20 l24 -9 -22 20 c-25 23 -37 27 -31 9z"/>
<path d="M2996 4323 c-8 -16 -26 -39 -40 -52 -21 -20 -23 -26 -11 -37 7 -8 21
-35 31 -61 22 -61 22 -61 40 -35 9 14 26 22 43 22 41 0 51 17 51 87 l0 63 -30
0 c-23 0 -30 4 -30 20 0 30 -37 25 -54 -7z"/>
<path d="M2940 4285 c-7 -9 -11 -18 -8 -20 3 -3 11 1 18 10 7 9 11 18 8 20 -3
3 -11 -1 -18 -10z"/>
<path d="M7558 4283 c7 -3 16 -2 19 1 4 3 -2 6 -13 5 -11 0 -14 -3 -6 -6z"/>
<path d="M7575 4217 c-20 -19 -20 -19 3 -12 21 6 23 4 18 -17 -6 -22 -6 -22 5
-2 7 13 8 28 3 37 -8 12 -12 11 -29 -6z"/>
<path d="M3949 4203 c-13 -16 -12 -17 4 -4 9 7 17 15 17 17 0 8 -8 3 -21 -13z"/>
<path d="M7530 4191 c-12 -24 -13 -34 -1 -27 9 6 22 46 15 46 -2 0 -8 -9 -14
-19z"/>
<path d="M3635 4159 c-9 -14 -7 -15 38 -22 20 -3 37 -2 37 4 0 5 -7 10 -15 10
-23 2 -29 4 -42 12 -6 4 -15 2 -18 -4z"/>
<path d="M7551 4137 c-1 -32 1 -36 13 -25 8 7 10 15 6 18 -4 3 -10 14 -13 25
-3 12 -5 4 -6 -18z"/>
<path d="M7630 4159 c0 -5 5 -7 10 -4 6 3 10 8 10 11 0 2 -4 4 -10 4 -5 0 -10
-5 -10 -11z"/>
<path d="M7490 4090 c0 -5 5 -10 11 -10 5 0 7 5 4 10 -3 6 -8 10 -11 10 -2 0
-4 -4 -4 -10z"/>
<path d="M7455 4080 c-3 -5 -1 -10 4 -10 6 0 11 5 11 10 0 6 -2 10 -4 10 -3 0
-8 -4 -11 -10z"/>
<path d="M7535 4070 c3 -5 10 -10 16 -10 5 0 9 5 9 10 0 6 -7 10 -16 10 -8 0
-12 -4 -9 -10z"/>
<path d="M7570 4065 c0 -13 20 -35 32 -35 4 0 8 5 8 12 0 6 -3 8 -7 5 -3 -4
-12 1 -19 11 -7 9 -14 12 -14 7z"/>
<path d="M7535 4031 c-3 -5 -1 -12 5 -16 5 -3 10 1 10 9 0 18 -6 21 -15 7z"/>
<path d="M7567 4007 c-3 -8 -1 -20 5 -28 8 -11 9 -11 5 2 -3 9 0 22 6 28 8 8
8 11 0 11 -6 0 -13 -6 -16 -13z"/>
<path d="M7600 4001 c0 -5 6 -12 13 -14 10 -4 10 -6 0 -6 -7 -1 -13 -5 -13
-10 0 -4 11 -6 25 -3 17 3 27 -1 31 -12 3 -9 10 -16 14 -16 16 0 -16 49 -38
60 -28 12 -32 13 -32 1z"/>
<path d="M6870 3950 c-8 -5 -27 -10 -41 -10 -15 0 -31 -6 -36 -12 -15 -19 -22
-57 -13 -60 5 -2 14 -25 21 -53 7 -27 16 -53 19 -58 7 -8 97 19 118 36 20 16
14 64 -13 93 -14 15 -25 38 -25 50 0 26 -7 29 -30 14z"/>
<path d="M7557 3954 c-4 -4 -2 -13 4 -21 9 -10 8 -18 -5 -31 -21 -24 -20 -31
4 -25 11 3 17 9 14 14 -3 5 0 9 6 9 14 0 9 52 -6 57 -5 2 -13 0 -17 -3z"/>
<path d="M7621 3951 c-15 -9 -8 -41 8 -41 15 0 23 18 14 34 -5 10 -13 12 -22
7z"/>
<path d="M7523 3915 c-19 -21 -16 -24 11 -12 13 7 22 15 20 19 -7 11 -17 9
-31 -7z"/>
<path d="M7600 3895 c0 -9 -14 -21 -31 -27 -28 -10 -29 -11 -14 -28 15 -17 15
-19 -7 -34 -12 -9 -18 -16 -12 -16 6 0 18 6 28 13 16 12 17 17 6 37 -10 19
-10 22 2 18 8 -4 20 3 27 14 7 11 19 17 27 14 21 -8 17 2 -6 14 -16 9 -20 8
-20 -5z"/>
<path d="M7456 3865 c-3 -8 -1 -15 4 -15 6 0 10 7 10 15 0 8 -2 15 -4 15 -2 0
-6 -7 -10 -15z"/>
<path d="M7510 3860 c0 -5 5 -10 10 -10 6 0 10 5 10 10 0 6 -4 10 -10 10 -5 0
-10 -4 -10 -10z"/>
<path d="M7590 3781 c0 -5 7 -11 14 -14 10 -4 13 -1 9 9 -6 15 -23 19 -23 5z"/>
<path d="M7550 3766 c0 -2 8 -10 18 -17 15 -13 16 -12 3 4 -13 16 -21 21 -21
13z"/>
<path d="M7601 3724 c0 -11 3 -14 6 -6 3 7 2 16 -1 19 -3 4 -6 -2 -5 -13z"/>
<path d="M7470 3716 c0 -2 9 -6 20 -9 11 -3 18 -1 14 4 -5 9 -34 13 -34 5z"/>
<path d="M7565 3710 c3 -5 8 -10 11 -10 2 0 4 5 4 10 0 6 -5 10 -11 10 -5 0
-7 -4 -4 -10z"/>
<path d="M7600 3680 c-8 -5 -12 -12 -9 -15 4 -3 12 1 19 10 14 17 11 19 -10 5z"/>
<path d="M2564 3613 c-19 -17 -24 -33 -24 -68 0 -25 4 -45 9 -45 5 0 7 -8 4
-19 -4 -16 3 -19 51 -25 31 -4 60 -5 66 -1 5 3 14 24 20 47 l11 40 50 -4 c39
-4 49 -2 45 8 -3 8 0 13 6 11 7 -1 14 6 16 16 4 18 -17 23 -33 8 -6 -4 -25
-13 -44 -20 l-34 -11 7 39 6 39 -66 4 c-57 3 -70 0 -90 -19z"/>
<path d="M7550 3531 c-6 -11 -6 -22 -1 -25 5 -3 11 5 13 19 6 30 2 32 -12 6z"/>
<path d="M0 3486 c0 -28 16 -36 45 -25 11 4 29 10 40 14 16 6 12 10 -25 21
-59 18 -60 18 -60 -10z"/>
<path d="M7605 3449 c-4 -6 -5 -12 -2 -15 2 -3 7 2 10 11 7 17 1 20 -8 4z"/>
<path d="M2456 3235 c-9 -13 -16 -29 -16 -35 0 -5 -5 -10 -11 -10 -6 0 -9 7
-5 15 3 8 1 15 -4 15 -9 0 -15 -27 -24 -115 -4 -38 -3 -44 4 -27 9 22 11 22
35 6 14 -9 27 -15 29 -13 2 2 6 30 9 61 4 46 2 58 -10 62 -14 6 -13 10 6 29
22 25 27 37 12 37 -5 0 -16 -11 -25 -25z"/>
<path d="M8127 3163 c-2 -5 -1 -19 4 -33 7 -23 7 -23 8 8 1 31 -3 40 -12 25z"/>
<path d="M8145 3090 c-3 -5 -1 -10 4 -10 6 0 11 5 11 10 0 6 -2 10 -4 10 -3 0
-8 -4 -11 -10z"/>
<path d="M8120 3060 c0 -5 5 -10 10 -10 6 0 10 5 10 10 0 6 -4 10 -10 10 -5 0
-10 -4 -10 -10z"/>
<path d="M8095 3050 c-3 -5 -1 -10 4 -10 6 0 11 5 11 10 0 6 -2 10 -4 10 -3 0
-8 -4 -11 -10z"/>
<path d="M2036 2911 c-28 -70 -28 -71 -10 -116 21 -56 31 -64 40 -29 7 26 8
26 20 9 14 -18 14 -18 29 1 16 21 35 78 35 107 0 21 -37 60 -50 52 -6 -4 -10
-2 -10 2 0 5 -6 17 -13 27 -12 16 -16 10 -41 -53z"/>
<path d="M7395 2879 c-16 -10 -53 -26 -81 -34 -65 -19 -92 -65 -66 -112 11
-19 21 -23 65 -23 70 0 97 19 97 69 0 21 7 52 15 67 16 31 19 54 8 53 -5 0
-21 -9 -38 -20z"/>
<path d="M7985 2690 c-3 -5 -1 -10 4 -10 6 0 11 5 11 10 0 6 -2 10 -4 10 -3 0
-8 -4 -11 -10z"/>
<path d="M7297 2443 c-3 -5 5 -8 18 -8 13 0 21 3 18 8 -2 4 -10 7 -18 7 -8 0
-16 -3 -18 -7z"/>
<path d="M6391 2331 c-8 -5 -10 -14 -6 -21 6 -9 10 -8 17 4 12 21 7 28 -11 17z"/>
<path d="M1120 2291 l-25 -7 23 -6 c27 -7 52 -1 52 13 0 10 -14 10 -50 0z"/>
<path d="M1810 2079 c0 -5 -10 -9 -22 -7 -11 2 -23 -3 -25 -9 -3 -9 6 -13 26
-13 24 0 31 4 31 20 0 11 -2 20 -5 20 -3 0 -5 -5 -5 -11z"/>
</g>
</svg>
