<?xml version="1.0" standalone="no"?>
<!DOCTYPE svg PUBLIC "-//W3C//DTD SVG 20010904//EN"
 "http://www.w3.org/TR/2001/REC-SVG-20010904/DTD/svg10.dtd">
<svg version="1.0" xmlns="http://www.w3.org/2000/svg"
 width="1024.000000pt" height="1024.000000pt" viewBox="0 0 1024.000000 1024.000000"
 preserveAspectRatio="xMidYMid meet">

<g transform="translate(0.000000,1024.000000) scale(0.100000,-0.100000)"
fill="#000000" stroke="none">
<path d="M0 5120 l0 -5120 5120 0 5120 0 0 5120 0 5120 -5120 0 -5120 0 0
-5120z m8282 1614 c124 -44 191 -87 289 -185 72 -71 94 -101 133 -180 79 -161
76 -110 76 -1252 0 -1138 3 -1083 -76 -1245 -38 -79 -60 -110 -132 -182 -100
-101 -192 -156 -317 -192 l-80 -23 -3060 0 c-2978 0 -3061 1 -3115 19 -254 87
-410 239 -505 491 l-30 80 -3 1030 c-3 1153 -7 1094 69 1252 61 129 152 231
272 308 75 47 112 63 217 91 l85 23 3045 -2 3045 -2 87 -31z"/>
<path d="M2960 6710 c-871 -6 -897 -6 -956 -26 -241 -83 -405 -255 -470 -496
-16 -57 -18 -154 -21 -963 -5 -1106 -3 -1147 79 -1313 85 -173 237 -301 427
-359 l86 -27 3014 2 c2989 2 3014 2 3100 22 242 57 428 249 485 498 15 66 16
178 16 1079 0 1082 1 1042 -51 1176 -73 184 -249 332 -460 389 l-84 23 -2135
0 c-1174 0 -2538 -2 -3030 -5z m1300 -608 c0 -26 -3 -28 -29 -24 -40 6 -71
-27 -71 -73 0 -35 0 -35 46 -35 41 0 45 -2 42 -22 -3 -20 -8 -22 -45 -20 l-43
4 0 -161 0 -161 -29 0 -28 0 0 158 0 157 -26 -1 c-21 0 -27 5 -27 22 0 17 7
23 27 26 24 3 28 8 30 43 7 77 44 114 116 115 34 0 37 -2 37 -28z m-635 -27
c0 -25 -4 -30 -24 -30 -32 0 -49 28 -31 50 7 9 23 15 34 13 16 -2 21 -10 21
-33z m1706 19 c17 -21 0 -49 -32 -49 -27 0 -37 28 -19 50 16 19 34 19 51 -1z
m-2514 -14 c45 -20 83 -69 83 -107 0 -17 -5 -21 -26 -19 -19 2 -30 12 -40 35
-14 34 -63 61 -109 61 -33 0 -81 -24 -89 -45 -22 -58 10 -95 112 -129 117 -38
155 -74 154 -147 -1 -53 -24 -86 -75 -110 -110 -50 -249 3 -273 104 -6 27 -5
28 27 25 19 -2 32 -5 30 -8 -2 -3 1 -15 8 -28 41 -77 184 -83 219 -9 23 47 -8
85 -93 113 -86 29 -144 63 -160 94 -63 123 90 235 232 170z m3820 -3 c41 -22
63 -55 70 -106 7 -52 -11 -94 -54 -130 l-35 -29 56 -97 c31 -53 56 -98 56
-101 0 -2 -15 -4 -32 -4 -31 1 -36 6 -88 98 l-55 97 -57 3 -58 3 0 -101 0
-100 -30 0 -30 0 0 246 0 246 113 -4 c81 -3 121 -9 144 -21z m-3217 -62 c0
-45 0 -45 35 -45 31 0 35 -3 35 -25 0 -22 -4 -25 -32 -23 l-33 3 -3 -118 c-3
-129 5 -157 43 -157 20 0 25 -5 25 -25 0 -21 -5 -25 -31 -25 -26 0 -62 12 -79
27 -3 3 -7 71 -10 151 l-5 147 -27 -1 c-23 0 -28 4 -28 23 0 19 5 23 30 23 29
0 30 2 30 45 0 41 2 45 25 45 23 0 25 -4 25 -45z m1700 0 c0 -45 0 -45 35 -45
30 0 35 -3 35 -23 0 -20 -5 -23 -32 -23 l-33 1 -3 -118 c-3 -128 5 -157 42
-157 24 0 41 -24 30 -41 -3 -5 -23 -9 -45 -9 -66 0 -73 17 -79 183 l-5 142
-30 0 c-23 1 -31 6 -33 23 -3 19 1 22 33 22 l37 0 -4 45 c-3 43 -2 45 24 45
26 0 28 -3 28 -45z m2120 0 c0 -43 1 -45 30 -45 25 0 30 -4 30 -24 0 -21 -4
-24 -30 -22 l-31 2 3 -135 3 -136 30 0 c25 -1 30 -5 30 -25 0 -22 -5 -25 -37
-28 -29 -3 -43 2 -63 22 -24 24 -25 29 -25 165 l0 141 -30 -6 c-27 -6 -30 -4
-30 20 0 22 4 26 30 26 29 0 30 2 30 45 0 43 1 45 30 45 29 0 30 -2 30 -45z
m-4055 -51 c52 -24 63 -60 67 -217 l3 -137 -27 0 c-14 0 -28 5 -30 10 -2 7
-16 5 -40 -5 -47 -19 -101 -19 -138 0 -37 19 -51 45 -52 98 0 34 5 46 30 68
37 33 100 52 154 47 36 -3 38 -2 38 27 0 36 -8 48 -37 64 -37 19 -73 13 -105
-19 -37 -37 -83 -42 -73 -7 23 72 130 109 210 71z m738 2 c39 -16 63 -42 72
-78 7 -26 5 -28 -24 -28 -20 0 -31 5 -31 14 0 8 -12 24 -27 36 -37 29 -89 24
-116 -12 -20 -26 -20 -28 -3 -47 10 -11 32 -23 50 -27 64 -13 127 -47 141 -75
19 -36 19 -53 -1 -90 -41 -80 -204 -78 -254 3 -28 45 -25 58 10 58 19 0 30 -5
30 -14 0 -8 12 -24 26 -35 52 -41 144 -18 144 35 0 26 -17 36 -133 78 -54 20
-80 53 -79 98 2 73 110 120 195 84z m603 -1 c51 -21 61 -56 66 -218 l3 -137
-27 0 c-14 0 -28 5 -30 10 -2 7 -16 5 -40 -5 -165 -68 -277 113 -120 194 12 7
51 14 87 18 63 6 65 7 65 34 0 34 -41 69 -82 69 -19 0 -40 -10 -60 -30 -16
-17 -40 -30 -54 -30 -29 0 -30 6 -4 48 35 57 122 78 196 47z m367 1 c43 -18
67 -46 74 -90 5 -34 4 -36 -21 -36 -17 0 -26 5 -26 16 0 27 -56 74 -87 74 -79
0 -123 -95 -93 -199 15 -53 47 -81 92 -81 41 0 88 34 88 65 0 9 9 15 25 15 66
0 -4 -111 -78 -125 -80 -15 -145 17 -178 89 -33 73 -20 185 29 240 39 43 115
58 175 32z m757 -8 c65 -33 93 -90 87 -180 -7 -114 -67 -178 -164 -178 -50 0
-112 36 -137 80 -29 49 -29 159 0 215 23 45 88 85 139 85 17 0 51 -10 75 -22z
m385 8 c51 -22 58 -45 63 -208 l4 -148 -31 0 -31 0 0 135 c0 131 -1 137 -25
160 -31 32 -71 32 -110 1 l-30 -24 0 -136 0 -136 -32 0 -33 0 0 180 0 180 30
0 c20 0 30 -5 30 -15 0 -19 3 -19 42 5 39 24 76 25 123 6z m962 -2 c56 -27 61
-43 65 -207 l3 -147 -27 0 c-14 0 -28 5 -30 10 -2 7 -16 5 -40 -5 -110 -45
-214 21 -187 119 17 61 96 102 181 94 37 -3 38 -3 38 29 0 72 -86 98 -142 43
-16 -17 -40 -30 -54 -30 -28 0 -29 2 -9 40 31 61 131 87 202 54z m592 -2 c51
-25 72 -60 78 -130 l6 -62 -127 0 c-80 0 -126 -4 -126 -10 0 -29 32 -80 59
-94 44 -23 85 -20 121 10 29 25 33 26 48 11 14 -15 14 -18 -4 -38 -66 -73
-195 -63 -250 20 -29 45 -41 134 -24 185 33 103 134 152 219 108z m-3959 -172
l0 -180 -30 0 -30 0 0 180 0 180 30 0 30 0 0 -180z m1700 0 l0 -180 -30 0 -30
0 0 180 0 180 30 0 30 0 0 -180z m-1151 -797 c109 -34 203 -156 232 -302 17
-86 7 -259 -20 -333 -39 -112 -123 -204 -214 -234 -68 -23 -196 -16 -253 14
-78 40 -128 104 -140 181 l-7 41 79 0 79 0 17 -40 c43 -102 202 -110 252 -12
15 30 32 101 42 177 l7 50 -29 -34 c-40 -48 -96 -71 -174 -71 -77 0 -129 21
-190 76 -62 56 -83 105 -87 195 -2 65 2 84 26 135 68 144 220 206 380 157z
m802 -10 c98 -44 152 -119 152 -210 0 -61 -33 -120 -83 -149 -32 -19 -39 -34
-17 -34 7 0 32 -16 55 -35 44 -39 82 -120 82 -179 0 -92 -66 -187 -165 -235
-67 -33 -201 -41 -277 -16 -147 48 -226 176 -189 311 15 56 64 121 106 141 19
9 35 19 35 22 0 4 -14 12 -31 20 -38 17 -79 78 -86 128 -13 97 52 193 162 239
51 21 71 24 136 20 45 -2 94 -12 120 -23z m1070 0 c94 -42 149 -115 149 -198
0 -63 -20 -105 -71 -149 -35 -30 -41 -39 -29 -46 8 -5 18 -10 21 -10 16 0 68
-59 88 -97 24 -48 28 -132 9 -196 -17 -58 -91 -129 -161 -155 -79 -30 -195
-30 -274 -1 -156 59 -225 218 -154 357 19 37 79 94 110 103 8 3 -2 15 -27 31
-46 31 -82 97 -82 151 0 96 82 189 200 228 42 14 173 3 221 -18z m709 -7 c58
-38 85 -95 84 -181 0 -55 -5 -79 -24 -112 -63 -114 -226 -137 -314 -47 -85 87
-81 238 7 324 40 39 77 50 150 46 41 -3 70 -12 97 -30z m440 28 c0 -7 -578
-865 -594 -882 -8 -8 -30 -12 -55 -10 l-42 3 289 432 c159 238 295 439 302
448 12 14 100 23 100 9z m-28 -490 c111 -57 140 -246 52 -344 -46 -51 -80 -63
-162 -58 -85 4 -125 30 -158 102 -62 133 0 285 130 317 38 9 102 1 138 -17z
m-1738 -245 c50 -23 58 -112 13 -144 -29 -21 -100 -19 -126 3 -12 9 -24 34
-28 54 -5 32 -1 41 25 68 33 32 72 39 116 19z"/>
<path d="M6440 5955 l0 -95 78 0 c73 0 80 2 105 28 36 38 37 94 2 126 -28 26
-65 36 -136 36 l-49 0 0 -95z"/>
<path d="M3058 5765 c-48 -26 -49 -82 -2 -103 39 -18 70 -14 103 14 25 21 31
33 31 65 l0 39 -52 0 c-29 -1 -65 -7 -80 -15z"/>
<path d="M4398 5764 c-42 -22 -48 -62 -14 -91 36 -30 77 -29 115 3 25 21 31
33 31 65 l0 39 -52 0 c-29 -1 -65 -7 -80 -16z"/>
<path d="M5521 5914 c-31 -22 -51 -73 -51 -129 0 -115 95 -175 171 -107 27 24
33 37 37 84 5 68 -11 121 -45 148 -31 24 -80 26 -112 4z"/>
<path d="M6868 5765 c-32 -18 -43 -47 -28 -74 25 -47 83 -54 129 -15 25 21 31
33 31 65 l0 39 -52 0 c-29 -1 -65 -7 -80 -15z"/>
<path d="M7465 5908 c-14 -13 -29 -38 -34 -55 l-10 -33 99 0 99 0 -11 33 c-14
43 -52 77 -88 77 -16 0 -40 -10 -55 -22z"/>
<path d="M4030 4873 c-52 -19 -91 -85 -92 -154 0 -121 118 -196 221 -141 97
52 92 212 -8 279 -32 22 -86 29 -121 16z"/>
<path d="M4783 4864 c-32 -16 -63 -66 -63 -101 0 -26 35 -79 65 -99 19 -12 39
-15 77 -12 69 7 108 47 108 111 0 51 -21 84 -66 103 -43 18 -81 17 -121 -2z"/>
<path d="M4774 4510 c-101 -50 -99 -214 3 -257 56 -23 136 -13 172 21 40 38
55 94 40 148 -14 54 -25 67 -74 89 -52 24 -91 24 -141 -1z"/>
<path d="M5870 4873 c-30 -11 -70 -57 -76 -89 -12 -64 49 -134 118 -134 74 0
128 50 128 117 -1 78 -92 134 -170 106z"/>
<path d="M5845 4510 c-52 -25 -75 -65 -75 -127 0 -89 55 -143 145 -143 96 0
145 48 145 142 0 65 -24 108 -73 131 -46 22 -93 21 -142 -3z"/>
<path d="M6591 4884 c-32 -40 -30 -152 2 -182 31 -29 80 -29 107 0 16 17 20
35 20 89 0 83 -23 119 -75 119 -24 0 -39 -7 -54 -26z"/>
<path d="M7025 4410 c-19 -21 -31 -103 -21 -144 16 -63 84 -85 126 -41 34 36
39 127 11 173 -18 27 -27 32 -59 32 -26 0 -45 -7 -57 -20z"/>
</g>
</svg>
