<?xml version="1.0" standalone="no"?>
<!DOCTYPE svg PUBLIC "-//W3C//DTD SVG 20010904//EN"
 "http://www.w3.org/TR/2001/REC-SVG-20010904/DTD/svg10.dtd">
<svg version="1.0" xmlns="http://www.w3.org/2000/svg"
 width="1024.000000pt" height="1024.000000pt" viewBox="0 0 1024.000000 1024.000000"
 preserveAspectRatio="xMidYMid meet">

<g transform="translate(0.000000,1024.000000) scale(0.100000,-0.100000)"
fill="#000000" stroke="none">
<path d="M0 5120 l0 -5120 5120 0 5120 0 0 5120 0 5120 -5120 0 -5120 0 0
-5120z m8826 1207 c245 -51 427 -148 605 -326 112 -113 167 -188 229 -316 76
-157 108 -290 117 -481 26 -584 -370 -1088 -951 -1211 -75 -16 -324 -17 -3636
-20 -2202 -1 -3597 1 -3665 7 -267 24 -497 128 -694 315 -170 162 -272 334
-342 575 -30 105 -38 357 -15 486 93 538 515 936 1041 984 44 4 1689 7 3655 6
3303 -2 3581 -3 3656 -19z"/>
<path d="M1498 6309 c-258 -27 -499 -147 -691 -343 -206 -210 -317 -495 -317
-810 0 -145 11 -220 50 -346 124 -401 468 -707 890 -792 53 -11 752 -13 3685
-13 3450 0 3624 1 3709 18 666 136 1070 809 880 1466 -118 404 -429 698 -854
804 l-85 21 -3595 2 c-1977 1 -3630 -2 -3672 -7z m425 -647 c36 -32 64 -179
44 -235 l-13 -39 -66 -1 c-55 -2 -71 -6 -92 -26 -32 -30 -36 -76 -6 -66 15 5
18 3 14 -9 -3 -9 -1 -16 5 -16 6 0 11 5 11 10 0 6 8 5 20 -2 15 -10 24 -10 38
-2 14 9 22 9 35 -1 14 -10 17 -30 17 -117 0 -58 5 -129 10 -158 10 -51 9 -55
-20 -94 -17 -23 -41 -57 -53 -76 -12 -19 -39 -43 -59 -53 -33 -16 -44 -17 -92
-6 -57 12 -116 57 -116 86 0 16 -23 43 -37 43 -22 0 -57 74 -58 126 -2 38 -12
73 -34 119 -21 43 -31 76 -29 97 4 40 28 48 60 19 12 -12 29 -21 37 -20 11 0
12 2 4 6 -7 2 -13 9 -13 14 0 4 7 5 17 2 11 -4 14 -3 9 5 -5 8 1 12 18 12 16
0 26 6 26 15 0 8 4 15 9 15 5 0 14 -7 21 -15 7 -8 17 -15 23 -15 5 0 2 10 -9
23 -10 12 -4 9 14 -8 28 -25 32 -34 26 -60 -4 -16 -15 -41 -25 -54 -22 -27
-26 -103 -6 -118 6 -6 28 -15 47 -22 28 -9 37 -9 45 3 6 7 19 15 29 17 32 6
31 29 -1 29 -56 1 -62 14 -61 143 1 147 -7 159 -134 186 -54 12 -58 14 -64 46
-9 50 -12 115 -6 157 4 32 8 37 41 43 47 10 310 23 336 17 11 -2 28 -11 38
-20z m676 -8 c59 -30 116 -95 162 -186 l29 -58 -22 -9 c-13 -4 -44 -11 -70
-15 -26 -4 -57 -16 -70 -26 -21 -17 -21 -19 -6 -25 10 -4 15 -11 12 -16 -6
-11 -1 -11 20 -3 9 3 14 10 11 14 -7 11 75 50 103 50 26 0 40 -26 23 -43 -6
-6 -32 -10 -57 -8 -50 3 -84 -17 -84 -51 0 -21 11 -23 28 -6 9 9 12 8 12 -6 0
-15 6 -17 33 -14 31 3 63 -13 51 -25 -3 -3 3 -4 13 -3 14 1 23 -14 40 -64 27
-79 29 -171 7 -252 -16 -54 -23 -64 -88 -114 -67 -53 -72 -55 -116 -50 -25 3
-55 6 -68 6 -38 0 -64 19 -60 43 2 17 14 25 48 34 25 6 41 12 35 12 -5 1 4 12
20 26 l30 25 -31 -10 c-23 -8 -39 -7 -70 7 l-39 17 95 9 c52 5 102 13 110 18
10 7 -11 8 -61 4 -51 -4 -79 -3 -84 4 -3 6 -22 11 -42 11 l-36 0 26 20 c14 11
32 20 41 20 9 0 16 8 16 19 0 22 22 33 46 24 12 -4 15 -2 12 8 -3 8 -15 13
-29 11 -50 -6 -65 -2 -81 18 -14 17 -15 26 -7 42 6 11 11 57 11 103 0 123 -21
147 -155 170 -31 5 -37 10 -32 23 4 9 13 50 21 90 17 89 43 127 109 158 64 30
80 30 144 -2z m1396 -301 c2 -21 -3 -23 -47 -23 l-48 0 0 -145 0 -145 -30 0
-30 0 0 145 0 145 -50 0 c-47 0 -50 2 -50 25 l0 26 127 -3 c123 -3 126 -4 128
-25z m4880 -149 l0 -169 -25 0 -25 0 -3 160 c-1 87 -1 164 2 170 2 7 15 11 28
10 l23 -2 0 -169z m-3555 -4 l0 -170 -25 0 c-16 0 -25 6 -25 16 0 14 -2 14
-22 0 -26 -18 -80 -21 -109 -6 -57 31 -67 167 -16 218 33 33 94 37 126 8 20
-18 20 -18 18 43 -3 61 -2 61 25 61 l28 0 0 -170z m230 116 l0 -54 31 15 c82
41 156 -48 135 -163 -14 -73 -95 -110 -154 -68 -20 14 -22 14 -22 0 0 -10 -9
-16 -25 -16 l-25 0 0 170 0 170 30 0 c30 0 30 -1 30 -54z m749 40 c32 -17 54
-60 45 -90 -3 -11 -18 -31 -32 -43 -21 -18 -23 -23 -10 -23 21 0 58 -46 58
-72 0 -33 -28 -75 -60 -88 -49 -20 -129 -8 -157 24 -30 35 -29 52 2 58 17 4
25 1 25 -8 0 -25 47 -47 85 -40 79 15 65 106 -15 106 -36 0 -40 3 -40 25 0 22
4 25 34 25 25 0 39 7 50 22 20 29 20 34 -4 58 -27 27 -66 25 -94 -5 -27 -29
-56 -33 -56 -7 1 59 100 93 169 58z m380 -2 c83 -59 78 -264 -8 -308 -118 -61
-216 74 -171 236 21 75 118 114 179 72z m300 0 c86 -61 78 -265 -13 -308 -97
-46 -175 24 -176 157 0 105 46 167 124 167 23 0 52 -7 65 -16z m295 -5 c42
-33 58 -74 58 -149 0 -102 -36 -157 -110 -167 -100 -13 -167 107 -132 236 24
91 118 132 184 80z m-5334 -14 c0 -12 -7 -14 -27 -9 l-28 7 25 -22 c19 -16 20
-20 5 -12 -11 5 -29 12 -40 16 -19 6 -19 7 5 20 33 19 60 19 60 0z m2810 -18
c0 -28 4 -33 23 -33 16 1 22 -5 22 -19 0 -14 -6 -20 -22 -19 -22 1 -23 -3 -23
-83 0 -82 0 -83 25 -83 20 0 25 -5 25 -25 0 -21 -5 -25 -29 -25 -56 0 -70 25
-73 125 -3 79 -5 90 -20 87 -13 -2 -18 4 -18 23 0 18 5 25 20 25 16 0 20 7 20
30 0 25 4 30 25 30 22 0 25 -4 25 -33z m-3136 15 c2 -4 -11 -6 -30 -4 -19 2
-34 6 -34 8 0 8 59 4 64 -4z m1145 -21 c10 -6 1 -9 -26 -8 -23 1 -39 5 -36 10
6 10 45 9 62 -2z m5171 -38 c57 -51 59 -164 5 -210 -32 -28 -96 -31 -116 -6
-12 14 -15 8 -19 -48 -5 -60 -6 -64 -30 -64 l-25 0 -3 173 -2 172 25 0 c16 0
25 -6 25 -16 0 -13 5 -12 26 5 37 29 77 27 114 -6z m-3875 -5 l-7 -23 21 23
c12 12 34 22 49 22 22 0 27 -4 27 -25 0 -20 -5 -25 -24 -25 -48 0 -61 -25 -61
-117 l0 -83 -29 0 -28 0 1 125 1 125 28 0 c25 0 27 -3 22 -22z m175 -64 c0
-94 10 -124 42 -124 46 0 58 26 58 122 l0 88 30 0 30 0 0 -125 0 -125 -30 0
c-24 0 -28 3 -23 18 6 16 5 16 -13 1 -44 -37 -112 -28 -133 17 -6 14 -11 67
-11 119 0 95 0 95 25 95 25 0 25 -1 25 -86z m371 73 c9 -7 21 -22 28 -34 11
-21 10 -23 -18 -23 -17 0 -31 6 -35 16 -4 11 -17 14 -43 12 -33 -3 -38 -6 -38
-27 0 -22 7 -27 55 -39 66 -16 90 -36 90 -72 0 -45 -42 -75 -105 -75 -43 0
-59 5 -79 24 -14 14 -26 30 -26 38 0 20 37 16 69 -8 24 -17 34 -20 58 -12 18
6 28 17 28 29 0 15 -13 22 -56 34 -72 19 -89 34 -89 76 0 51 29 74 93 74 28 0
59 -6 68 -13z m383 3 c33 -12 66 -66 66 -107 l0 -33 -85 0 c-93 0 -105 -10
-65 -50 24 -24 57 -26 81 -4 10 9 30 14 46 12 l28 -3 -32 -32 c-25 -27 -39
-33 -73 -33 -87 0 -126 47 -118 145 8 92 72 136 152 105z m2526 -30 l0 -40 40
0 c33 0 40 -3 40 -19 0 -16 -8 -20 -37 -23 -35 -3 -38 -6 -41 -35 -2 -25 -8
-33 -23 -33 -15 0 -19 7 -19 35 0 34 -1 35 -40 35 -33 0 -40 3 -40 20 0 17 7
20 40 20 l40 0 0 40 c0 33 3 40 20 40 17 0 20 -7 20 -40z m672 29 c23 -12 57
-83 58 -118 0 -23 0 -23 -84 -16 -46 3 -86 3 -89 -2 -9 -16 13 -53 39 -65 22
-10 31 -9 56 5 32 18 68 23 68 8 0 -5 -14 -21 -31 -35 -56 -47 -147 -26 -175
39 -27 65 -10 146 37 179 27 18 91 21 121 5z m284 -23 c31 -31 34 -39 34 -95
0 -52 -4 -65 -27 -91 -52 -58 -149 -48 -185 18 -7 14 -13 48 -13 76 1 81 43
125 119 126 30 0 45 -7 72 -34z m132 16 c3 -9 10 -8 25 3 58 41 138 -3 151
-82 10 -56 -9 -119 -41 -140 -34 -22 -87 -22 -113 2 -20 18 -20 18 -20 -48 0
-65 -1 -67 -25 -67 l-25 0 0 175 c0 174 0 175 22 172 12 -2 24 -9 26 -15z
m491 4 c30 -16 46 -45 56 -100 l7 -36 -91 0 c-82 0 -90 -2 -84 -17 18 -50 61
-67 99 -38 25 19 64 19 64 0 0 -24 -60 -55 -105 -55 -49 0 -83 22 -101 66 -50
120 48 235 155 180z m-3265 -89 l29 -92 29 93 c28 87 31 92 57 92 l28 0 -53
-152 c-55 -161 -73 -188 -125 -188 -38 0 -41 35 -4 44 48 12 48 34 0 167 -25
67 -45 124 -45 126 0 2 12 3 28 3 25 0 29 -6 56 -93z m-3361 53 c3 0 8 8 11
18 3 9 3 -14 1 -53 -4 -62 -29 -182 -40 -193 -9 -9 -64 21 -93 51 -39 40 -64
98 -52 118 6 9 26 14 55 14 56 1 82 26 37 36 -26 6 -26 7 6 8 20 1 35 7 39 17
6 16 7 16 18 0 7 -9 15 -16 18 -16z m3994 -154 c2 -1 -7 -30 -18 -64 -13 -40
-26 -62 -36 -62 -13 0 -15 8 -9 46 3 26 6 58 6 71 0 22 3 24 27 18 16 -4 29
-8 30 -9z m-5040 -348 c-4 -17 68 -68 101 -73 32 -4 58 -17 156 -82 28 -18 55
-29 62 -25 7 4 28 27 48 52 25 32 36 55 36 79 0 19 3 31 7 27 4 -4 9 -64 10
-134 1 -70 4 -145 5 -166 2 -27 -1 -41 -11 -44 -11 -4 -13 5 -7 47 5 37 3 59
-9 81 -20 39 -58 58 -79 41 -8 -7 -19 -10 -24 -7 -6 3 -15 -1 -22 -9 -7 -8
-16 -13 -20 -10 -4 2 -18 -8 -31 -23 -22 -25 -22 -25 -1 -8 31 27 28 11 -8
-34 -31 -39 -38 -56 -19 -45 5 4 19 -4 30 -17 l21 -23 -30 -3 c-17 -2 -48 2
-70 7 -35 10 -45 20 -92 98 -29 49 -76 122 -105 163 -28 41 -58 86 -65 100
-12 22 -12 24 2 12 11 -9 23 -10 42 -2 14 5 34 7 43 3 12 -4 8 5 -12 27 l-30
33 37 -27 c21 -15 36 -32 35 -38z m34 -15 c13 -15 12 -15 -8 -4 -24 12 -29 21
-14 21 5 0 15 -7 22 -17z m1319 -65 c0 -24 -7 -83 -16 -132 -8 -49 -14 -103
-12 -120 l3 -31 -93 -3 c-74 -2 -92 0 -86 10 5 7 8 22 9 32 0 13 9 22 25 26
31 7 49 53 49 127 1 51 2 53 54 92 28 22 55 40 60 40 4 1 7 -18 7 -41z m-996
-40 c-32 -46 -50 -56 -67 -38 -9 10 -9 11 3 5 12 -7 13 -6 2 6 -11 11 -5 21
35 56 57 49 71 34 27 -29z"/>
<path d="M1570 5000 c0 -20 15 -43 62 -92 30 -32 81 -37 133 -14 l30 13 -50 8
c-27 4 -59 14 -70 21 -17 12 -7 14 77 14 54 0 100 4 103 10 4 6 -13 10 -42 11
-26 0 -59 2 -73 5 -14 2 -45 7 -70 10 -25 4 -54 13 -65 20 -27 19 -35 18 -35
-6z"/>
<path d="M5154 5215 c-21 -33 -14 -113 12 -132 25 -18 58 -16 77 5 24 26 23
113 -1 135 -28 25 -69 21 -88 -8z"/>
<path d="M5567 5222 c-25 -27 -23 -106 3 -132 28 -28 55 -25 80 8 18 21 21 36
17 71 -7 66 -62 95 -100 53z"/>
<path d="M6574 5307 c-23 -20 -27 -32 -31 -93 -3 -56 -1 -75 15 -100 51 -80
132 -27 132 86 0 70 -37 130 -79 130 -5 0 -22 -10 -37 -23z"/>
<path d="M6871 5306 c-16 -17 -24 -41 -28 -83 -9 -98 28 -154 94 -141 32 6 54
66 50 137 -3 55 -7 67 -31 87 -34 30 -57 30 -85 0z"/>
<path d="M7173 5315 c-47 -33 -54 -169 -12 -214 11 -12 32 -21 48 -21 44 0 65
31 69 106 5 75 -11 122 -45 135 -32 12 -35 12 -60 -6z"/>
<path d="M7833 5249 c-25 -9 -43 -62 -36 -105 11 -61 63 -84 103 -44 27 27 28
110 3 132 -26 22 -45 26 -70 17z"/>
<path d="M4900 5230 c-37 -37 -27 -51 37 -48 63 3 75 16 44 47 -26 26 -55 27
-81 1z"/>
<path d="M8087 5232 c-30 -32 -21 -42 38 -42 60 0 70 13 37 43 -24 22 -55 21
-75 -1z"/>
<path d="M8370 5243 c-27 -10 -40 -36 -40 -83 0 -75 44 -108 93 -69 23 17 27
28 27 69 0 41 -4 52 -26 69 -28 22 -30 23 -54 14z"/>
<path d="M8633 5235 c-39 -27 -38 -123 0 -147 20 -13 55 -9 71 8 24 23 21 109
-4 134 -24 24 -38 25 -67 5z"/>
<path d="M8997 5232 c-10 -10 -17 -26 -17 -35 0 -15 9 -17 55 -15 60 3 72 20
37 51 -24 22 -55 21 -75 -1z"/>
</g>
</svg>
