<?xml version="1.0" standalone="no"?>
<!DOCTYPE svg PUBLIC "-//W3C//DTD SVG 20010904//EN"
 "http://www.w3.org/TR/2001/REC-SVG-20010904/DTD/svg10.dtd">
<svg version="1.0" xmlns="http://www.w3.org/2000/svg"
 width="1024.000000pt" height="1024.000000pt" viewBox="0 0 1024.000000 1024.000000"
 preserveAspectRatio="xMidYMid meet">

<g transform="translate(0.000000,1024.000000) scale(0.100000,-0.100000)"
fill="#000000" stroke="none">
<path d="M3678 9529 c-37 -14 -36 -43 2 -59 44 -18 104 -64 128 -97 l20 -29
-86 0 c-106 -1 -193 -29 -348 -108 -113 -59 -221 -90 -276 -80 -18 4 -50 16
-70 27 -20 11 -44 17 -54 13 -43 -16 24 -187 98 -250 l38 -33 -62 -23 c-149
-54 -242 -114 -283 -184 -28 -49 -49 -137 -41 -172 7 -27 43 -34 52 -9 6 14
73 59 80 53 6 -6 -55 -203 -86 -278 -37 -89 -60 -179 -60 -237 0 -38 -5 -47
-54 -93 -114 -108 -172 -307 -132 -458 31 -114 112 -206 212 -237 48 -15 77
-17 175 -12 l118 7 -15 -43 c-8 -23 -31 -105 -53 -182 l-38 -140 -104 3 c-331
11 -813 -79 -1159 -215 -259 -102 -375 -175 -530 -332 -330 -334 -589 -854
-704 -1414 -15 -71 -29 -155 -33 -188 -6 -56 -4 -62 31 -114 44 -67 126 -133
227 -185 l76 -39 6 -143 c21 -497 149 -907 376 -1203 71 -93 130 -153 211
-215 259 -196 556 -309 920 -351 131 -15 511 -6 662 15 120 17 329 58 398 79
l45 13 10 -40 10 -39 415 -109 c228 -59 603 -158 834 -218 230 -61 429 -110
443 -110 13 0 65 18 116 39 51 21 111 42 134 46 24 4 57 18 75 31 50 36 212
114 239 114 28 0 123 43 134 60 10 17 151 80 177 80 41 0 99 24 137 57 22 18
78 51 125 73 l86 39 1 73 c0 40 2 81 4 92 6 32 -6 45 -59 60 -103 30 -1016
275 -1295 347 -242 63 -285 77 -289 94 -3 11 -29 65 -58 121 l-52 100 34 19
c82 44 134 137 114 205 -23 79 -82 135 -200 189 l-66 29 7 79 c4 43 8 111 8
152 1 66 3 72 19 66 9 -4 66 -10 126 -14 l108 -6 52 -120 c217 -507 528 -824
921 -942 81 -24 106 -26 245 -26 136 0 167 3 255 26 118 31 274 106 367 177
297 226 506 642 557 1112 14 124 14 371 1 496 -40 363 -168 767 -343 1079
-255 453 -572 784 -951 988 -48 26 -96 57 -106 67 -10 11 -71 98 -135 194 -64
96 -126 181 -138 189 -42 27 -74 28 -121 5 -58 -27 -96 -98 -96 -176 l0 -51
-57 13 c-32 7 -88 16 -126 20 -57 6 -67 9 -61 23 28 66 66 213 80 305 12 82
15 154 12 272 l-5 161 57 6 c69 6 127 34 170 83 55 63 87 153 59 169 -5 4 -26
-1 -45 -10 -30 -14 -41 -15 -65 -5 -40 17 -56 38 -35 46 26 10 19 43 -11 55
-58 22 -123 72 -152 118 -17 26 -31 51 -31 54 0 4 14 7 30 7 100 0 230 154
218 257 -3 30 -1 29 -81 16 -61 -10 -122 21 -212 107 -44 42 -99 89 -123 105
-31 20 -41 33 -36 44 32 74 39 191 12 191 -5 0 -31 -7 -59 -16 -81 -27 -218
-15 -359 30 -108 35 -121 37 -212 33 l-96 -4 -7 34 c-9 47 -65 106 -128 134
-59 26 -221 37 -269 18z m249 -70 c65 -25 90 -58 107 -141 14 -71 34 -85 65
-46 18 21 27 23 108 22 70 -1 108 -7 188 -33 118 -39 207 -48 300 -32 37 7 70
10 72 7 8 -8 -6 -71 -20 -91 -13 -17 -17 -17 -93 8 -152 50 -197 58 -359 64
-136 5 -177 2 -276 -16 -520 -94 -946 -478 -1134 -1022 -33 -95 -39 -106 -67
-117 -18 -6 -33 -11 -34 -9 -8 9 23 136 51 213 62 164 125 365 119 376 -9 14
-62 4 -113 -20 l-42 -21 7 22 c28 91 97 150 239 202 39 14 89 32 112 41 63 23
62 38 -8 102 -49 46 -109 131 -109 156 0 3 12 1 26 -4 39 -15 144 -12 204 6
30 9 102 40 160 69 164 82 231 99 357 92 91 -6 104 -5 110 10 13 35 -62 137
-133 180 -32 19 102 4 163 -18z m603 -327 c151 -41 247 -82 292 -124 26 -23
35 -37 23 -33 -11 4 -51 18 -90 32 -308 107 -630 86 -926 -62 -256 -129 -507
-379 -632 -630 -43 -87 -98 -235 -127 -341 l-23 -82 -36 25 c-30 21 -45 24
-88 21 -29 -3 -53 -1 -53 3 0 4 16 61 36 126 88 293 207 497 403 694 216 216
427 328 721 384 114 21 402 14 500 -13z m13 -127 c123 -21 232 -58 397 -133
119 -55 154 -66 198 -67 51 0 53 -1 47 -25 -18 -75 -100 -145 -170 -145 -37 0
-47 6 -102 63 -89 91 -208 141 -208 87 0 -14 16 -27 55 -46 83 -40 140 -97
194 -193 45 -80 74 -114 136 -159 24 -17 22 -18 -100 -14 -188 6 -306 50 -397
149 -46 51 -73 98 -83 143 -8 42 -47 48 -55 8 -31 -152 -100 -260 -203 -320
-49 -29 -160 -63 -205 -63 -27 0 -27 0 -13 28 8 16 22 71 31 123 19 111 56
196 115 262 40 45 48 77 17 77 -7 0 -37 -24 -66 -54 -39 -40 -70 -60 -115 -77
-72 -26 -170 -84 -237 -140 -100 -84 -197 -241 -206 -336 l-6 -55 -24 29 c-57
68 -68 102 -68 205 1 102 -8 123 -39 92 -33 -33 -33 -152 1 -236 21 -53 8
-106 -48 -200 -59 -98 -61 -99 -118 -45 -26 25 -63 53 -82 62 -19 10 -36 19
-37 21 -2 1 11 42 28 91 73 200 181 364 341 518 295 283 669 412 1022 350z
m-507 -446 c-8 -24 -20 -77 -26 -117 -11 -76 -27 -119 -54 -141 -47 -39 14
-78 101 -66 193 26 332 120 398 267 17 37 32 68 35 68 3 0 14 -16 25 -36 28
-52 99 -112 180 -150 60 -29 114 -44 253 -70 20 -4 22 -10 22 -60 0 -31 10
-120 21 -198 36 -238 17 -461 -58 -670 l-28 -80 -55 -16 c-78 -24 -130 -53
-171 -97 -86 -92 -114 -195 -71 -266 19 -33 19 -34 1 -45 -10 -7 -33 -36 -49
-66 -27 -46 -39 -57 -90 -79 -234 -102 -576 -60 -853 104 -83 49 -194 152
-237 220 -32 49 -62 63 -73 34 -4 -8 9 -36 27 -63 19 -27 48 -78 66 -113 84
-167 186 -269 315 -314 19 -6 18 -8 -10 -31 -79 -66 -174 -95 -311 -95 -95 0
-207 28 -272 68 -42 26 -112 95 -129 128 -36 68 -34 87 23 293 84 300 85 303
102 309 85 26 159 90 201 171 50 98 66 249 36 349 l-15 52 51 68 c29 37 65 96
82 131 l29 62 40 -50 c59 -74 71 -66 79 46 6 73 13 105 38 155 62 130 165 232
311 308 41 22 76 38 77 37 2 -1 -4 -22 -11 -47z m1100 -260 c28 -31 68 -49
109 -49 40 0 42 -4 17 -42 -37 -56 -99 -88 -171 -88 -59 0 -61 3 -61 116 l0
84 43 0 c32 0 49 -6 63 -21z m-2316 -350 c-9 -31 -27 -58 -65 -94 -29 -28 -63
-71 -75 -95 -28 -55 -38 -169 -20 -226 56 -177 250 -207 378 -58 77 90 101
206 67 322 -13 43 -14 59 -4 92 7 22 16 37 21 34 4 -3 21 -29 36 -57 25 -48
27 -61 27 -167 0 -103 -3 -121 -27 -172 -58 -125 -173 -210 -283 -211 -165 -1
-280 107 -293 274 -11 161 70 325 191 383 28 13 53 23 55 21 2 -2 -2 -22 -8
-46z m182 -95 c87 -77 76 -271 -20 -355 -130 -114 -272 -52 -272 119 0 69 15
109 64 173 63 83 171 113 228 63z m2407 -423 c10 -10 38 -52 61 -92 24 -41 62
-102 86 -136 24 -35 42 -63 41 -63 -23 0 -315 114 -324 126 -7 10 -13 32 -13
48 1 40 33 111 57 125 28 16 71 13 92 -8z m-289 -202 c265 -47 589 -181 830
-342 441 -295 818 -833 995 -1421 75 -251 104 -424 112 -677 10 -319 -29 -561
-131 -816 -156 -390 -423 -650 -761 -740 -139 -37 -339 -39 -464 -5 -253 69
-502 256 -683 512 -71 101 -174 291 -231 426 l-34 82 91 6 c250 19 531 117
736 256 58 39 59 40 66 17 15 -49 108 -225 150 -283 118 -166 225 -130 297
101 34 107 47 210 47 360 0 590 -474 1365 -954 1561 -94 38 -249 65 -268 46
-24 -24 0 -39 70 -45 39 -4 81 -11 93 -16 22 -8 20 -10 -31 -39 -105 -60 -196
-49 -289 34 -51 46 -101 131 -101 171 0 60 66 129 157 163 58 22 116 23 338 7
26 -2 30 1 30 23 0 23 -5 26 -80 38 -156 25 -298 2 -398 -64 l-41 -27 -26 32
c-30 35 -50 92 -50 140 0 94 107 177 259 202 55 9 87 8 170 -5 128 -20 131
-20 131 4 0 26 -21 36 -113 50 -108 18 -228 9 -305 -23 l-62 -25 -15 21 c-43
61 15 187 112 244 97 57 178 64 353 32z m-2229 -375 c37 -6 37 -6 27 -42 -42
-152 128 -328 367 -377 216 -45 484 51 500 179 7 53 23 79 43 71 45 -18 169
-45 248 -54 122 -13 379 -103 488 -168 40 -24 46 -32 46 -61 0 -77 98 -204
193 -250 56 -28 143 -39 186 -24 29 10 33 8 72 -36 60 -68 177 -248 256 -393
85 -157 160 -324 307 -687 l114 -283 -32 -42 c-104 -136 -435 -308 -696 -361
-42 -8 -137 -18 -213 -22 l-137 -7 -14 34 c-24 57 -54 187 -71 307 -13 88 -16
166 -13 345 4 225 5 234 32 304 29 74 29 103 1 103 -22 0 -41 -51 -81 -207
-62 -247 -89 -448 -104 -793 -11 -262 -21 -385 -30 -400 -10 -16 -38 -2 -46
23 -4 12 -42 113 -86 224 -53 135 -87 208 -101 218 -47 33 -143 9 -166 -42
-18 -39 -14 -55 54 -234 36 -95 64 -173 62 -175 -2 -2 -48 -15 -103 -29 -81
-20 -153 -52 -389 -170 -316 -158 -442 -206 -660 -251 -116 -25 -151 -27 -330
-28 -170 0 -216 4 -304 23 -209 45 -344 115 -393 206 -34 62 -91 233 -114 340
-23 110 -23 357 0 485 32 179 128 421 242 608 44 73 50 102 19 102 -19 0 -58
-62 -139 -220 -107 -210 -170 -406 -183 -571 l-6 -76 -71 -16 c-39 -9 -100
-21 -136 -27 -86 -13 -339 -13 -436 1 -277 38 -547 171 -620 305 l-21 39 19
115 c96 567 355 1116 692 1467 145 151 257 226 476 316 267 109 565 184 865
216 173 19 326 25 386 15z m1649 -166 c0 -29 45 -127 72 -155 38 -40 9 -42
-65 -4 -39 21 -114 53 -166 71 l-93 34 73 17 c41 10 94 27 119 38 58 25 60 25
60 -1z m693 -498 c364 -184 732 -735 837 -1252 24 -117 29 -325 10 -441 -27
-169 -93 -307 -147 -307 -53 0 -152 138 -225 313 l-32 77 36 38 c20 20 48 54
62 75 l25 39 -18 36 c-10 21 -56 129 -101 242 -214 534 -341 791 -506 1020
-29 41 -65 86 -78 100 l-24 25 36 32 c21 18 44 32 52 32 8 1 41 -13 73 -29z
m-1121 -1771 c18 -10 36 -42 52 -95 6 -18 0 -24 -34 -38 -65 -26 -78 -22 -100
30 -26 59 -25 68 6 93 30 24 46 26 76 10z m-2378 -171 c3 -24 8 -69 11 -100 9
-79 48 -223 92 -338 30 -77 46 -104 87 -145 191 -189 692 -249 1137 -136 173
44 293 92 534 216 335 172 430 205 599 205 193 0 390 -80 442 -181 27 -54 19
-95 -30 -144 -62 -62 -85 -65 -149 -23 -89 60 -158 80 -282 85 -95 4 -124 1
-209 -21 -100 -26 -119 -37 -109 -64 7 -16 29 -13 123 13 179 50 381 17 489
-80 44 -40 52 -72 30 -132 l-10 -31 -62 20 c-50 16 -81 19 -157 15 -141 -7
-270 -61 -233 -98 8 -8 29 -4 79 16 144 57 318 40 412 -41 57 -49 72 -81 72
-157 0 -136 -107 -255 -260 -288 -88 -19 -160 24 -160 95 0 47 22 70 106 112
76 37 95 57 77 75 -12 12 -91 -26 -283 -136 -408 -235 -690 -337 -1116 -406
-162 -26 -548 -37 -703 -20 -309 34 -575 126 -811 282 -350 231 -568 659 -635
1247 -9 79 -15 146 -12 148 2 2 19 -2 38 -10 101 -42 323 -65 469 -47 113 14
271 52 349 85 31 13 59 24 63 25 4 0 9 -18 12 -41z m2503 -115 c28 -71 50
-129 49 -130 -1 -1 -32 1 -70 5 l-68 7 -39 104 c-21 57 -39 105 -39 107 0 2
12 4 28 4 15 1 38 7 52 15 14 8 28 14 31 15 3 0 28 -57 56 -127z m493 -1082
c0 -9 -71 -41 -91 -41 -6 0 -6 6 0 18 18 34 24 120 11 166 -6 23 -29 65 -49
92 -21 28 -36 56 -33 64 3 13 2 13 -7 0 -15 -22 -21 -8 -14 34 6 36 8 33 94
-144 49 -99 89 -184 89 -189z m192 109 c106 -28 306 -79 443 -115 624 -162
617 -160 599 -170 -66 -39 -109 -75 -112 -93 -5 -32 20 -28 73 12 56 43 97 53
130 32 26 -17 43 -62 29 -76 -5 -4 -62 -30 -126 -58 l-117 -50 -11 34 c-16 47
-54 74 -104 74 -69 -1 -186 -64 -186 -101 0 -23 32 -26 51 -3 22 27 87 54 128
54 32 0 44 -5 57 -25 8 -13 14 -31 12 -40 -2 -10 -60 -41 -151 -81 -82 -35
-151 -64 -153 -64 -2 0 -4 7 -4 16 0 9 -15 31 -34 50 -47 47 -91 46 -188 -4
-54 -27 -74 -43 -76 -60 -5 -31 16 -28 77 9 28 18 69 34 94 36 39 5 46 2 66
-23 12 -15 20 -32 18 -38 -2 -6 -41 -25 -88 -44 -46 -18 -128 -51 -181 -74
-78 -33 -104 -40 -135 -35 -21 4 -315 80 -653 170 -338 90 -648 172 -687 182
-40 11 -73 22 -73 26 0 4 12 10 28 14 38 9 246 110 370 178 56 31 104 57 106
57 2 0 6 -19 9 -42 7 -53 56 -101 118 -118 85 -23 210 22 300 109 l49 48 38
-32 c65 -55 132 -96 150 -93 14 3 17 18 20 95 l3 92 -51 100 c-27 56 -46 101
-41 101 6 0 97 -23 203 -50z m-152 -216 c0 -30 -3 -54 -7 -54 -11 0 -103 64
-103 71 0 3 18 11 40 18 21 6 42 16 45 21 14 22 25 -4 25 -56z m1421 -118 l44
-13 -39 -16 c-21 -10 -42 -17 -46 -17 -6 0 -18 21 -38 64 -3 4 5 5 15 2 11 -4
40 -12 64 -20z m59 -104 c0 -47 -1 -48 -45 -70 -25 -12 -48 -22 -50 -22 -3 0
-5 20 -5 45 0 43 2 45 48 69 26 14 48 25 50 26 1 0 2 -22 2 -48z m-154 -64
c-4 -23 -12 -48 -18 -56 -11 -12 -174 -93 -216 -106 -16 -5 -17 0 -12 46 l5
51 115 53 c63 29 119 53 124 53 5 1 6 -18 2 -41z m-1741 -208 c308 -82 590
-156 628 -166 l67 -16 0 -55 0 -55 -32 6 c-18 3 -368 94 -778 201 -410 107
-761 198 -780 203 -30 7 -35 12 -35 37 0 27 5 31 53 45 63 19 -20 38 877 -200z
m1433 33 c-10 -21 -43 -40 -150 -89 l-138 -63 0 54 c0 52 2 55 33 69 17 8 84
37 147 65 l115 51 3 -30 c2 -16 -3 -42 -10 -57z m-352 -161 c-12 -23 -34 -38
-93 -62 -43 -18 -115 -50 -160 -71 l-83 -38 0 59 c0 70 -15 59 195 145 l150
62 3 -33 c2 -18 -4 -46 -12 -62z"/>
<path d="M3946 8044 c-58 -21 -100 -57 -121 -104 -22 -50 -13 -87 27 -109 24
-14 33 -14 92 2 40 11 101 17 165 17 110 0 143 10 160 47 25 55 -1 105 -72
139 -42 19 -68 24 -132 23 -44 0 -98 -7 -119 -15z m232 -64 c35 -16 43 -24 40
-42 -3 -22 -8 -23 -138 -30 -74 -3 -150 -9 -167 -13 -29 -6 -33 -5 -33 13 0
30 30 61 75 77 60 21 171 19 223 -5z"/>
<path d="M4604 7991 c-116 -53 -93 -161 34 -161 41 0 74 -9 132 -35 90 -40
117 -43 154 -14 55 43 19 146 -66 188 -47 22 -131 41 -182 41 -17 0 -50 -9
-72 -19z m223 -69 c45 -23 63 -47 63 -81 0 -30 -29 -27 -102 10 -47 24 -76 31
-127 33 -74 2 -91 20 -49 51 33 24 158 16 215 -13z"/>
<path d="M4064 7734 c-20 -19 -24 -31 -20 -52 14 -59 76 -80 114 -39 30 32 28
71 -4 96 -35 28 -59 26 -90 -5z"/>
<path d="M4651 7704 c-25 -32 -26 -52 -5 -82 21 -30 73 -30 102 1 28 30 28 58
-1 85 -32 30 -71 28 -96 -4z"/>
<path d="M3827 7393 c-26 -26 12 -115 63 -150 95 -62 290 -71 290 -13 0 17 -8
19 -82 17 -71 -1 -92 3 -140 25 -56 26 -71 44 -92 111 -5 17 -27 23 -39 10z"/>
<path d="M4228 4023 c7 -3 16 -2 19 1 4 3 -2 6 -13 5 -11 0 -14 -3 -6 -6z"/>
<path d="M4675 3089 c-5 -8 -4 -10 4 -5 6 4 14 0 18 -9 3 -10 0 -21 -8 -26
-10 -6 -11 -9 -1 -9 20 0 26 30 10 47 -12 12 -17 12 -23 2z"/>
<path d="M5265 2905 c-82 -35 -159 -67 -170 -72 -30 -12 -32 -43 -3 -43 25 0
334 122 351 139 12 12 2 41 -15 40 -7 0 -80 -29 -163 -64z"/>
<path d="M5505 2871 c-295 -120 -685 -296 -685 -309 0 -5 7 -15 15 -22 13 -11
30 -6 98 25 238 108 554 246 640 279 75 30 97 42 97 57 0 30 -33 24 -165 -30z"/>
<path d="M7540 4989 c-103 -10 -187 -37 -220 -71 -29 -29 -44 -77 -56 -183 -6
-52 -5 -55 19 -64 14 -5 27 -13 30 -18 3 -4 12 -85 21 -178 50 -524 92 -860
111 -891 15 -24 138 -67 236 -83 177 -29 464 6 528 65 17 16 32 133 86 679 20
204 38 379 40 391 3 11 16 26 31 32 24 11 25 16 19 55 -16 103 -37 157 -76
191 -43 40 -76 51 -209 71 -102 16 -426 18 -560 4z m560 -53 c105 -16 156 -34
184 -64 17 -20 17 -21 -6 -36 -61 -40 -312 -71 -503 -63 -195 9 -410 52 -422
84 -13 33 56 63 182 82 101 15 460 12 565 -3z m-756 -135 c3 -5 41 -18 83 -30
239 -64 665 -59 845 9 52 20 48 23 62 -43 6 -26 3 -30 -46 -52 -192 -88 -609
-95 -878 -15 -94 28 -102 35 -94 93 6 45 16 58 28 38z m358 -231 c179 -16 423
4 537 45 l44 15 -7 -77 c-4 -43 -10 -102 -13 -131 l-6 -52 -51 -15 c-229 -65
-556 -64 -761 4 l-50 16 -7 80 c-4 44 -9 101 -13 126 l-5 46 100 -23 c55 -12
159 -28 232 -34z m-140 -292 c158 -31 377 -30 537 1 63 12 123 27 133 32 16 8
18 5 18 -24 0 -65 -40 -391 -49 -400 -14 -14 -145 -46 -240 -58 -104 -13 -252
-5 -380 22 -143 29 -135 18 -155 216 -9 92 -19 187 -23 211 -5 42 -5 42 21 33
14 -6 76 -20 138 -33z m-17 -472 c194 -48 474 -42 619 14 16 6 30 9 32 7 2 -2
-2 -53 -8 -115 l-12 -111 -85 -28 c-81 -26 -96 -28 -251 -27 -151 0 -173 3
-255 28 -49 15 -93 30 -97 34 -4 4 -13 55 -21 115 -12 97 -12 107 2 103 9 -3
43 -12 76 -20z"/>
<path d="M10139 4761 c-30 -16 -189 -106 -354 -201 -165 -95 -493 -283 -730
-418 -236 -135 -446 -261 -466 -279 -42 -38 -59 -71 -164 -324 -42 -101 -82
-192 -90 -203 -13 -17 -16 -17 -82 0 -42 10 -108 17 -173 18 -118 1 -137 -5
-309 -103 -280 -159 -1790 -1022 -1861 -1063 -124 -73 -120 -67 -120 -165 0
-88 8 -116 36 -127 22 -9 124 -23 1039 -151 559 -79 775 -105 816 -101 93 9
159 41 331 160 90 61 336 231 548 376 718 491 995 683 1023 709 24 22 27 32
27 83 0 53 4 65 40 116 39 56 261 587 496 1189 83 214 94 248 94 304 0 57 -1
61 -14 44 -7 -11 -26 -56 -41 -100 -86 -248 -514 -1305 -562 -1386 -39 -67
-36 -65 -1153 -810 -480 -321 -627 -414 -633 -403 -8 14 113 330 253 659 37
88 129 311 203 495 268 665 291 715 335 752 17 14 139 87 273 163 134 76 375
213 534 305 719 415 749 432 778 427 25 -3 27 -1 27 30 0 28 -4 33 -24 33 -13
0 -47 -13 -77 -29z m-1915 -1466 c82 -17 97 -28 74 -52 -12 -11 -43 -18 -100
-23 -46 -3 -94 -12 -108 -20 -94 -49 -1583 -924 -1697 -996 -55 -35 -62 -49
-40 -76 13 -17 231 -52 860 -138 399 -54 452 -58 517 -35 56 20 55 20 56 -17
0 -18 4 -40 8 -50 6 -13 -4 -20 -51 -38 l-58 -23 -165 21 c-312 40 -1292 173
-1579 215 -46 6 -86 17 -88 23 -2 5 216 136 484 289 1354 774 1543 880 1608
906 82 33 169 37 279 14z m1326 -370 c-6 -7 -128 -93 -271 -192 -143 -98 -292
-201 -332 -228 -40 -28 -191 -132 -337 -231 -146 -100 -368 -252 -495 -339
-386 -266 -374 -262 -694 -217 -538 76 -947 133 -1231 172 -168 23 -315 45
-327 50 -18 8 -23 18 -23 45 0 35 1 36 33 31 17 -3 212 -30 432 -61 220 -30
499 -68 620 -85 781 -107 774 -106 859 -64 31 16 1317 873 1611 1074 154 106
160 109 163 84 2 -14 -2 -31 -8 -39z"/>
</g>
</svg>
